<?xml version="1.0" standalone="no"?>
<!DOCTYPE svg PUBLIC "-//W3C//DTD SVG 1.1//EN" "http://www.w3.org/Graphics/SVG/1.1/DTD/svg11.dtd" >
<svg xmlns="http://www.w3.org/2000/svg">
<metadata></metadata>
<defs>
<font id="tstar_mono_roundregular" horiz-adv-x="1228" >
<font-face units-per-em="2048" ascent="1638" descent="-410" />
<missing-glyph horiz-adv-x="500" />
<glyph horiz-adv-x="2048" />
<glyph horiz-adv-x="2048" />
<glyph unicode="&#xd;" horiz-adv-x="2048" />
<glyph unicode=" " />
<glyph unicode="!" d="M532 25v161h162v-161h-162zM565 457v970q0 22 15 38t36 16q22 0 38 -16t16 -38v-970q0 -22 -16 -38t-38 -16q-21 0 -36 16t-15 38z" />
<glyph unicode="&#x22;" d="M399 1171v259q0 27 18 44t46 17q27 0 44 -17t17 -44v-259q0 -27 -17 -44t-44 -17q-28 0 -46 17t-18 44zM702 1171v259q0 27 17.5 44t44.5 17q28 0 45.5 -16.5t17.5 -44.5v-259q0 -28 -17.5 -44.5t-45.5 -16.5q-27 0 -44.5 17t-17.5 44z" />
<glyph unicode="#" d="M123 567q0 19 12.5 33t30.5 14h178l76 314h-158q-20 0 -32.5 12.5t-12.5 32.5q0 19 12.5 33t32.5 14h178l80 336q6 19 24 28.5t36 4.5q21 -4 31 -21.5t5 -38.5l-73 -309h272l80 336q4 19 21 27.5t36 5.5q48 -12 37 -60l-76 -309h146q17 0 31 -14t14 -33 q0 -20 -13.5 -32.5t-31.5 -12.5h-164l-74 -314h142q19 0 33 -14t14 -33q0 -20 -14 -32.5t-33 -12.5h-166l-92 -397q-6 -19 -25 -27.5t-39 -3.5q-16 5 -26.5 23.5t-6.5 36.5l88 368h-272l-94 -397q-6 -19 -24 -27.5t-38 -3.5q-17 4 -27 22.5t-5 37.5l86 368h-156 q-19 0 -31 12.5t-12 32.5zM446 614h271l76 314h-273z" />
<glyph unicode="$" d="M209 369q0 20 14.5 34.5t36.5 14.5q20 0 34.5 -14.5t14.5 -34.5q0 -113 68.5 -181t179.5 -82v637l-166 97q-77 45 -122.5 128t-45.5 175q0 140 89.5 227t244.5 96v80q0 20 12 34.5t33 14.5t35 -15t14 -34v-80q149 -19 247.5 -114.5t98.5 -231.5q0 -20 -15.5 -35.5 t-35.5 -15.5q-19 0 -34 15.5t-15 35.5q0 111 -67.5 170.5t-178.5 69.5v-555l176 -103q103 -60 148 -144.5t45 -203.5q0 -156 -101 -250.5t-268 -103.5v-76q0 -21 -14 -36t-35 -15t-33 15t-12 36v76q-162 12 -255 114t-93 255zM326 1139q0 -145 123 -215l108 -66v502 q-103 -10 -167 -65t-64 -156zM651 104q122 11 194.5 76t72.5 172q0 183 -142 262l-125 76v-586z" />
<glyph unicode="%" d="M41 958v205q0 106 65 170t173 64q112 0 175.5 -63t63.5 -171v-205q0 -106 -64.5 -169.5t-174.5 -63.5t-174 63t-64 170zM133 958q0 -57 33 -98t113 -41q69 0 107 36t38 103l2 205q0 57 -33.5 98.5t-113.5 41.5q-68 0 -107 -36.5t-39 -103.5v-205zM360 33l410 1415 q5 21 22 30.5t37 2.5q37 -13 27 -58l-405 -1415q-7 -20 -24 -28t-34 -5q-16 5 -26.5 22t-6.5 36zM700 311v203q0 108 65 172t175 64t174 -63.5t64 -172.5v-203q0 -108 -64.5 -170.5t-173.5 -62.5q-112 0 -176 62t-64 171zM793 311q0 -26 6.5 -49.5t22 -45.5t46 -35t72.5 -13 q68 0 106.5 38t38.5 105v203q0 27 -6.5 50t-21.5 44.5t-45 34t-72 12.5q-69 0 -108 -37.5t-39 -103.5v-203z" />
<glyph unicode="&#x26;" d="M125 403q0 241 194 359l64 35l-82 67q-129 117 -129 264q0 71 23.5 129t61 95t86.5 62.5t98 36.5t98 11q164 0 275.5 -96.5t111.5 -251.5q0 -20 -14.5 -35.5t-34.5 -15.5t-35 15.5t-15 35.5q-1 112 -83 177t-205 65q-38 0 -72.5 -5.5t-71 -21.5t-62.5 -41t-42.5 -67 t-16.5 -97q0 -73 27 -115.5t86 -90.5l700 -603q12 -11 13.5 -32t-8.5 -35q-12 -13 -34.5 -14t-35.5 10l-117 100q-10 -87 -47 -154t-91.5 -106t-116.5 -58.5t-130 -19.5q-77 0 -144 21t-125 65.5t-92 124t-34 186.5zM227 399q0 -67 18 -119t46.5 -84t68 -53t78.5 -29t82 -8 q129 0 210 77.5t81 228.5v12l-350 305l-90 -53q-144 -82 -144 -277z" />
<glyph unicode="'" d="M553 1171v259q0 28 16.5 44.5t44.5 16.5t45 -16.5t17 -44.5v-259q0 -28 -17 -44.5t-45 -16.5t-44.5 16.5t-16.5 44.5z" />
<glyph unicode="(" d="M498 178v1102q0 87 19 144t73 116l57 55q17 15 38 15t34 -17q29 -40 -4 -73q-60 -60 -82 -103q-31 -60 -31 -149v-1078q0 -89 31 -149q18 -43 67 -88l15 -14q15 -15 13 -38.5t-17 -35.5q-15 -11 -36 -10.5t-34 12.5l-51 51q-54 60 -73 116t-19 144z" />
<glyph unicode=")" d="M496 1555.5q-2 19.5 14 37.5q18 17 40.5 14t43.5 -24l45 -43q54 -59 73 -116t19 -144v-1102q0 -88 -19 -144t-73 -116l-51 -51q-14 -14 -34.5 -14.5t-35.5 12.5q-17 13 -18 36t14 38l14 14q51 47 68 88q31 60 31 149v1078q0 82 -31 149q-28 49 -82 103q-16 16 -18 35.5z " />
<glyph unicode="*" d="M317 979l224 121l-224 119l45 75l211 -131l-4 254h90l-8 -254l217 131l43 -75l-223 -119l223 -121l-43 -76l-217 129l8 -252h-90l4 254l-211 -133z" />
<glyph unicode="+" d="M172 590q0 22 13.5 35.5t33.5 13.5h344v332q0 22 12.5 35.5t34.5 13.5t34.5 -13.5t12.5 -35.5v-332h351q20 0 33.5 -13.5t13.5 -35.5q0 -20 -13.5 -33.5t-33.5 -13.5h-351v-359q0 -22 -12.5 -35.5t-34.5 -13.5t-34.5 13.5t-12.5 35.5v359h-344q-20 0 -33.5 13.5 t-13.5 33.5z" />
<glyph unicode="," d="M451 -227l155 422h176l-264 -422h-67z" />
<glyph unicode="-" d="M315 557q0 20 14 33.5t36 13.5h497q22 0 35.5 -13.5t13.5 -33.5q0 -22 -13.5 -35.5t-35.5 -13.5h-497q-22 0 -36 13.5t-14 35.5z" />
<glyph unicode="." d="M539 27v168h149v-168h-149z" />
<glyph unicode="/" d="M305 -41l520 1595q6 19 26 29.5t40 3.5q20 -8 29.5 -25.5t3.5 -37.5l-521 -1594q-7 -22 -27 -31t-38 -3q-20 6 -30 24t-3 39z" />
<glyph unicode="0" d="M244 377v721q0 41 8.5 84t33.5 95t64 91.5t108 66.5t158 27q87 0 155 -26.5t106.5 -66.5t63.5 -91.5t33.5 -95.5t8.5 -86v-721q0 -42 -8.5 -86.5t-34 -97t-65.5 -92t-109 -66.5t-158 -27q-87 0 -154.5 27t-106 66.5t-63 92.5t-32.5 97.5t-8 87.5zM346 379 q0 -66 20 -116.5t49 -78t67.5 -45t70 -23t63.5 -5.5q31 0 62.5 5.5t70 23t67 45t48 78t19.5 116.5l2 713q0 55 -13.5 99t-36.5 72.5t-50.5 48.5t-59 30t-58 14t-51.5 4q-31 0 -63 -5.5t-70.5 -23t-67.5 -45.5t-49 -78.5t-20 -115.5v-713z" />
<glyph unicode="1" d="M221 76q0 23 15 38t40 15h287v1217h-209q-23 0 -37 13.5t-14 35.5t14 37.5t37 15.5h308v-1319h292q22 0 38 -15.5t16 -37.5t-15.5 -35.5t-38.5 -13.5h-682q-23 0 -37 13t-14 36z" />
<glyph unicode="2" d="M205 27v254q0 149 117 266q27 27 71 58.5t71 48.5t89 55q49 30 71.5 44.5t65.5 44t64.5 48.5t51.5 49t44.5 55.5t25.5 57.5t11 65q0 138 -77.5 213.5t-213.5 75.5q-29 0 -61 -5.5t-72 -21.5t-72 -41.5t-56.5 -70.5t-29.5 -103q-1 -22 -16 -35.5t-35 -13.5q-23 0 -36 13.5 t-13 35.5q0 41 12.5 84.5t42 90.5t72.5 83.5t112 60t152 23.5q174 0 283.5 -107t109.5 -276q0 -44 -12 -85.5t-29 -74.5t-48.5 -68t-57.5 -59t-70.5 -55.5t-72 -49.5t-76.5 -48q-40 -25 -53.5 -33.5t-49.5 -32t-50.5 -35l-43.5 -34.5t-41.5 -38.5t-31.5 -39t-27 -44 t-14.5 -46t-6.5 -51.5v-156h668q22 0 36.5 -15.5t14.5 -37.5q0 -23 -14.5 -36t-36.5 -13h-768z" />
<glyph unicode="3" d="M221 383q0 21 14 36t37 15q20 0 36 -15.5t16 -35.5q0 -68 21.5 -120t53 -80.5t72.5 -47t74 -24t65 -5.5q25 0 53 5t62.5 16t65 32t56.5 50t41 74t15 100v104q0 65 -22.5 115.5t-55 78t-75 45t-76 23t-64.5 5.5h-82v98l328 494h-575q-23 0 -37.5 15t-14.5 36 q0 22 14.5 37.5t37.5 15.5h688v-107l-326 -491q87 -8 155 -38.5t106 -69.5t62 -88t32 -88t8 -76v-109q0 -41 -10.5 -87.5t-38.5 -99.5t-69.5 -95t-111.5 -69.5t-158 -27.5q-89 0 -161 27t-114.5 68t-71 93.5t-39.5 99.5t-11 91z" />
<glyph unicode="4" d="M238 442v129l321 867q6 19 26.5 28.5t39.5 1.5q20 -7 27 -25t1 -38l-317 -862h551v532q0 22 13.5 36.5t35.5 14.5q23 0 37 -14.5t14 -36.5l2 -1034q0 -23 -14 -37t-37 -14q-22 0 -35.5 14t-13.5 37v401h-651z" />
<glyph unicode="5" d="M211 381q0 21 14 36t37 15q21 0 36 -15t15 -36q0 -125 82.5 -198.5t216.5 -73.5q76 0 143.5 31t113.5 96.5t46 152.5v96q0 116 -79.5 199.5t-219.5 83.5h-342v133l37 545h613q20 0 35.5 -15.5t15.5 -37.5q0 -21 -15 -35.5t-36 -14.5h-518l-31 -471h246 q162 0 278.5 -107.5t116.5 -275.5v-98q0 -166 -118.5 -275.5t-285.5 -109.5q-170 0 -285.5 103.5t-115.5 271.5z" />
<glyph unicode="6" d="M223 373v721q0 40 11 85t40 96.5t72 92t114.5 67.5t160.5 27q82 0 146.5 -24t103.5 -60.5t65 -84.5t36 -91.5t11 -85.5q0 -23 -15.5 -37t-37.5 -14q-20 0 -33.5 14.5t-15.5 36.5q-7 67 -38 117.5t-73.5 76.5t-82.5 38t-75 12q-30 0 -64.5 -7.5t-75 -27t-72 -48.5 t-53 -77.5t-21.5 -109.5v-295q52 60 130.5 88t164.5 28q87 0 156.5 -27t111 -67t69 -92t38 -97.5t10.5 -86.5v-170q0 -39 -10.5 -83.5t-39 -96t-71 -91.5t-113.5 -67t-160 -27q-87 0 -157 27t-112 67t-70.5 91.5t-39 96.5t-10.5 85zM326 377q0 -66 21.5 -116.5t53 -78 t72.5 -45t74 -23t65 -5.5t65 5t75 22.5t73.5 45t53.5 78.5t22 117l2 162q0 63 -22 113t-54 78t-74 46.5t-76 24.5t-65 6t-64.5 -6t-74.5 -25t-72.5 -48t-53 -80t-21.5 -116v-155z" />
<glyph unicode="7" d="M188 1393q0 25 14 40t36 15h802v-100l-485 -1313q-7 -21 -26.5 -30t-41.5 -1q-20 7 -28 25.5t0 40.5l475 1273h-696q-22 0 -36 14t-14 36z" />
<glyph unicode="8" d="M209 393v33q0 36 8.5 76t28 88t61 92.5t99.5 73.5q-54 26 -92.5 68t-56.5 88.5t-25 84.5t-7 74v27q0 39 10.5 83t38.5 95.5t69.5 91.5t112.5 67t160 27q88 0 158 -26t112 -66t69.5 -91t38 -96t10.5 -87v-27q0 -45 -16 -97.5t-61.5 -114t-111.5 -97.5q57 -31 99.5 -77 t63.5 -93.5t30.5 -88.5t9.5 -77v-33q0 -43 -11 -90t-40 -101t-73 -96t-118.5 -70t-167.5 -28q-90 0 -162.5 28t-115.5 70.5t-71.5 97t-39 101.5t-10.5 90zM313 397q0 -70 23 -123.5t56 -82.5t77.5 -47t79.5 -23.5t69 -5.5t68 5.5t78 23.5t77 47t56 82.5t23 123.5v23 q0 140 -87 211t-225 71q-128 0 -211.5 -76.5t-83.5 -205.5v-23zM328 1073q0 -128 81 -197t209 -69q125 0 206 70t81 196v19q0 65 -22 115.5t-53.5 78.5t-73.5 45.5t-75 23t-65 5.5t-65 -5.5t-75 -23t-73 -45t-53 -78t-22 -116.5v-19z" />
<glyph unicode="9" d="M223 930v170q0 39 10.5 83t39 95.5t70.5 91.5t113 67t160 27q87 0 157 -25t112 -63.5t70 -89t38.5 -97t10.5 -91.5v-721q0 -41 -11 -86t-39.5 -96.5t-71.5 -92t-114 -67.5t-160 -27q-82 0 -146.5 23.5t-103.5 60t-65 84.5t-36 91.5t-11 86.5q0 24 15 36.5t38 12.5 q20 0 33.5 -13.5t15.5 -35.5q6 -55 28 -99t51 -70t64.5 -43.5t66 -24t58.5 -6.5q30 0 64.5 7t75 26.5t72.5 48.5t53.5 78t21.5 110v295q-96 -117 -295 -117q-87 0 -156.5 27t-111 67.5t-69 92.5t-38 97.5t-10.5 86.5zM326 932q0 -64 22 -114t54 -78t73.5 -46t75.5 -24t65 -6 t64.5 6t75 24.5t73 47t53 79.5t21.5 117v156q0 65 -21.5 115.5t-53 78.5t-73 45.5t-74.5 23t-65 5.5t-65 -5.5t-75 -23t-73 -45t-53 -78t-22 -116.5z" />
<glyph unicode=":" d="M541 25v168h147v-168h-147zM541 569v168h147v-168h-147z" />
<glyph unicode=";" d="M444 -184l160 374h187l-248 -374h-99zM618 569v168h148v-168h-148z" />
<glyph unicode="&#x3c;" d="M301 563l520 518q14 16 35 17t39 -15q15 -14 14.5 -37t-14.5 -38l-440 -445l446 -450q15 -15 15 -39t-15 -37q-18 -16 -39 -15t-35 17z" />
<glyph unicode="=" d="M213 477q0 19 14 34t35 15h703q20 0 35.5 -15t15.5 -34q0 -21 -15 -35t-36 -14h-703q-22 0 -35.5 13.5t-13.5 35.5zM213 778q0 21 14 36t35 15h703q20 0 35.5 -15.5t15.5 -35.5t-15 -33.5t-36 -13.5h-703q-22 0 -35.5 13.5t-13.5 33.5z" />
<glyph unicode="&#x3e;" d="M311 74q0 24 15 39l446 450l-440 445q-14 15 -14 38.5t14 36.5q18 16 39 15t35 -17l520 -518l-527 -524q-14 -16 -34.5 -17t-38.5 15q-15 13 -15 37z" />
<glyph unicode="?" d="M225 1120q6 142 117.5 242t271.5 100q164 0 278 -108t114 -275q0 -56 -14 -105.5t-33 -81.5t-48 -61.5t-49.5 -44t-46.5 -30.5q-51 -32 -80 -53.5t-59.5 -55.5t-44 -76t-13.5 -98v-72q0 -23 -15 -37t-36 -14q-23 0 -37 14t-14 37v66q0 226 189 334q43 25 64.5 39.5 t52.5 40.5t45.5 50t26 61t11.5 81q0 135 -82 212t-209 77q-110 0 -197.5 -71t-90.5 -171q0 -21 -15.5 -36t-34.5 -15q-22 0 -37 14t-14 37zM494 25v161h161v-161h-161z" />
<glyph unicode="@" d="M223 125v813q0 39 10.5 83t39 95t70.5 91t113 66.5t160 26.5q87 0 157 -26.5t112 -67t70 -91.5t38.5 -95.5t10.5 -83.5v-895q0 -21 -15.5 -35t-36.5 -14q-20 0 -33.5 13.5t-13.5 35.5v92q-74 -71 -182 -67q-113 0 -188.5 64t-75.5 187v340q0 123 77.5 188.5t192.5 65.5 q36 0 86.5 -17t89.5 -50v88q0 62 -21.5 111t-54 77.5t-73.5 47.5t-75.5 25.5t-64.5 6.5q-32 0 -65 -5.5t-75.5 -23t-74 -45t-53.5 -78t-22 -116.5v-805q0 -61 19 -109t47 -76t65.5 -46.5t69.5 -26t65 -8.5q23 0 37 -16t14 -38q-2 -22 -16 -34.5t-37 -12.5q-84 5 -151 33 t-106 67.5t-65 89.5t-35.5 92.5t-9.5 82.5zM553 324q0 -81 49.5 -123.5t120.5 -42.5q72 0 127 40.5t55 123.5l2 333q0 81 -56 120.5t-126 39.5q-71 0 -121.5 -42.5t-50.5 -123.5v-325z" />
<glyph unicode="A" d="M147 61l326 1387h279l329 -1389q2 -7 2 -14q1 -13 -7 -25q-12 -18 -32 -22q-7 -2 -14 -2q-14 0 -26 7q-18 10 -23 34l-98 403h-537l-98 -403q-10 -40 -49 -40q-6 0 -13 1q-41 7 -41 46q0 8 2 17zM369 543h487l-180 805h-123z" />
<glyph unicode="B" d="M217 25v1423h412q88 0 155.5 -26t104.5 -64t60.5 -89t30.5 -93t7 -84v-25q0 -34 -6.5 -71t-22 -83t-49.5 -87t-82 -66q51 -22 87.5 -56t55 -66.5t28.5 -74t12 -67t2 -58.5v-49q0 -28 -4.5 -58.5t-16 -66.5t-29 -69t-47 -64.5t-67 -54.5t-91.5 -37t-118 -14h-422zM319 127 h320q32 0 63.5 5.5t70 23t67.5 45t49 78t20 116.5v41q0 66 -17.5 116t-44 78.5t-62.5 46.5t-68.5 24t-67.5 6h-330v-580zM319 809h322q244 0 244 262v19q0 65 -18.5 114.5t-45 76t-64 42.5t-67 20.5t-61.5 4.5h-310v-539z" />
<glyph unicode="C" d="M223 377v721q0 39 10.5 83t39 95.5t70.5 91.5t113 67t160 27q85 0 153.5 -25.5t110.5 -64t70.5 -88.5t39.5 -95.5t11 -88.5q0 -21 -15 -35t-36 -14q-20 0 -33.5 13.5t-13.5 35.5q-1 64 -23 113.5t-53.5 76.5t-72.5 44t-74 22.5t-64 5.5q-32 0 -65 -5.5t-75.5 -23t-74 -45 t-53.5 -78t-22 -116.5v-717q0 -66 22 -117t53.5 -78.5t74 -45t75.5 -22.5t65 -5t65 5.5t74.5 23t73 45.5t53 79t21.5 117q0 21 13.5 36t33.5 15q22 0 38 -15.5t16 -35.5q0 -42 -11 -88t-39.5 -98t-71.5 -92.5t-114 -67.5t-160 -27q-87 0 -156.5 27t-111 67.5t-69 92.5 t-38 97.5t-10.5 86.5z" />
<glyph unicode="D" d="M221 25v1425h412q88 0 157 -27t108.5 -66.5t65 -91t34 -95.5t8.5 -85v-690q0 -43 -8.5 -87.5t-33.5 -97t-63.5 -92.5t-106 -66.5t-153.5 -26.5h-420zM324 127h313q32 0 63.5 5.5t69 23.5t65.5 46t47 78.5t19 116.5l2 682q0 65 -20 115.5t-49 78.5t-67.5 46t-70.5 23.5 t-63 5.5h-309v-1221z" />
<glyph unicode="E" d="M223 25v1423h729q20 0 36 -15.5t16 -35.5q0 -19 -16 -34t-36 -15h-626v-519h579q19 0 34 -15.5t15 -35.5q0 -19 -15 -34t-34 -15h-577v-604h624q20 0 36 -15.5t16 -35.5t-15.5 -34.5t-36.5 -14.5h-729z" />
<glyph unicode="F" d="M223 25v1423h729q20 0 36 -15.5t16 -35.5q0 -19 -16 -34t-36 -15h-626v-523h579q19 0 34 -15.5t15 -35.5q0 -19 -15 -34t-34 -15h-577v-700h-105z" />
<glyph unicode="G" d="M221 377v721q0 39 10.5 83t39 95.5t70.5 91.5t113 67t160 27q87 0 156.5 -26.5t111 -67t69 -92t38 -96t10.5 -84.5q0 -20 -15.5 -36t-35.5 -16t-33.5 15.5t-13.5 36.5q0 65 -21.5 115t-53 78t-73 45t-74.5 22.5t-65 5.5t-65 -5.5t-75.5 -23t-74 -45t-53.5 -78t-22 -116.5 v-717q0 -66 22 -117t53.5 -78.5t74 -45t75.5 -22.5t65 -5t65 5.5t75 23t73.5 45t53.5 78t22 116.5v307h-293q-20 0 -34.5 15.5t-14.5 35.5t14.5 34.5t34.5 14.5h396v-409q0 -40 -11 -85.5t-40.5 -97t-73 -92t-115 -67.5t-160.5 -27q-87 0 -156.5 27t-111 67.5t-69 92.5 t-38 97.5t-10.5 86.5z" />
<glyph unicode="H" d="M211 41v1391q0 22 13 36.5t36 14.5q22 0 36.5 -14.5t14.5 -36.5v-607h607v607q0 22 13 36.5t36 14.5q22 0 36.5 -14.5t14.5 -36.5v-1391q0 -23 -14.5 -37t-36.5 -14q-23 0 -36 14t-13 37v684h-607v-684q0 -23 -14.5 -37t-36.5 -14q-23 0 -36 14t-13 37z" />
<glyph unicode="I" d="M266 74q0 22 14 37.5t35 15.5h248v1219h-248q-22 0 -35.5 13.5t-13.5 35.5t14 37.5t35 15.5h594q21 0 36.5 -16t15.5 -37t-15.5 -35t-36.5 -14h-247v-1219h247q21 0 36.5 -15.5t15.5 -37.5q0 -21 -15.5 -35t-36.5 -14h-594q-22 0 -35.5 13.5t-13.5 35.5z" />
<glyph unicode="J" d="M264 375q0 22 13.5 36.5t35.5 14.5t38 -15t16 -36q0 -63 16.5 -112t41.5 -77.5t59 -46.5t65.5 -24t64.5 -6q34 0 66 6t66.5 23t59.5 44t41.5 73t16.5 105v986h-430q-23 0 -36 13.5t-13 35.5q0 23 13 38t36 15h531v-1075q0 -173 -93 -270t-260 -97q-164 0 -256 98.5 t-92 270.5z" />
<glyph unicode="K" d="M229 41v1391q0 22 14.5 36.5t37.5 14.5q21 0 36 -15t15 -36v-752l518 762q11 18 35.5 20.5t38.5 -8.5q16 -11 19.5 -30t-7.5 -38l-385 -569l448 -749q7 -13 7 -27q0 -7 -2 -14q-6 -22 -23 -31q-12 -7 -25 -7q-6 0 -14 2q-22 6 -35 27l-420 709l-155 -229v-457 q0 -23 -15 -37t-36 -14q-23 0 -37.5 14t-14.5 37z" />
<glyph unicode="L" d="M223 27v1405q0 22 14 36.5t37 14.5q21 0 36.5 -15t15.5 -36v-1303h624q22 0 38 -15.5t16 -37.5t-15.5 -35.5t-38.5 -13.5h-727z" />
<glyph unicode="M" d="M137 41v1407h191l286 -813l287 813h191v-1407q0 -22 -16 -37.5t-38 -15.5q-20 0 -35.5 15.5t-15.5 37.5v1298h-18l-305 -860h-99l-305 860h-18v-1298q0 -21 -16 -37t-36 -16q-22 0 -37.5 15.5t-15.5 37.5z" />
<glyph unicode="N" d="M238 39v1409h192l438 -1329h19v1313q0 21 15 36t36 15q22 0 37.5 -14.5t15.5 -36.5v-1409h-198l-433 1316h-18v-1300q0 -22 -15.5 -37.5t-35.5 -15.5q-22 0 -37.5 15.5t-15.5 37.5z" />
<glyph unicode="O" d="M221 377v721q0 39 10.5 83t39 95.5t70.5 91.5t113 67t160 27q87 0 157.5 -27t113 -67.5t71 -91.5t39.5 -96t11 -84v-721q0 -40 -11 -85.5t-40.5 -97t-73 -92t-115 -67.5t-160.5 -27q-87 0 -156.5 27t-111 67.5t-69 92.5t-38 97.5t-10.5 86.5zM324 377q0 -66 22 -117 t53.5 -78.5t74 -45t75.5 -22.5t65 -5t65 5.5t74.5 23t73 45t53 78t21.5 116.5l2 717q0 65 -22 115.5t-53.5 78.5t-73.5 45.5t-75 23t-65 5.5t-65 -5.5t-75.5 -23t-74 -45t-53.5 -78t-22 -116.5v-717z" />
<glyph unicode="P" d="M221 41v1407h412q88 0 157 -27t108.5 -66.5t65 -91t34 -95.5t8.5 -85v-108q0 -42 -8.5 -86.5t-33.5 -97t-63.5 -92t-106 -66.5t-153.5 -27h-315v-565q0 -21 -16 -37t-36 -16q-22 0 -37.5 15.5t-15.5 37.5zM324 707h313q32 0 63.5 6t69.5 23.5t66.5 46t47.5 79t19 115.5 v102q0 65 -20 115.5t-49 78.5t-67.5 46t-70.5 23.5t-63 5.5h-309v-641z" />
<glyph unicode="Q" d="M221 377v721q0 39 10.5 83t39 95.5t70.5 91.5t113 67t160 27q87 0 157.5 -27t113 -67.5t71 -91.5t39.5 -96t11 -84v-721q0 -36 -10 -77t-35 -88t-62 -86.5t-98.5 -71t-136.5 -42.5v-190q0 -19 -13.5 -33t-34.5 -14t-34 14t-13 33v188q-79 10 -142 41t-100.5 70.5t-62 88 t-34 90t-9.5 79.5zM324 379q0 -217 243 -266v268q0 21 13 34t34 13q22 0 35 -13t13 -34v-266q239 41 239 264l2 715q0 65 -22 115.5t-53.5 78.5t-73.5 45.5t-75 23t-65 5.5t-65 -5.5t-75.5 -23t-74 -45t-53.5 -78t-22 -116.5v-715z" />
<glyph unicode="R" d="M221 41v1407h412q89 0 158 -26.5t108 -66t64.5 -91t34 -95t8.5 -84.5v-69q0 -46 -13 -95.5t-42.5 -103.5t-87.5 -98.5t-138 -65.5l258 -594q9 -22 0.5 -40.5t-27.5 -24.5q-17 -7 -36.5 0t-28.5 26l-273 627h-292v-606q0 -21 -16 -37t-36 -16q-22 0 -37.5 15.5t-15.5 37.5 zM324 748h313q32 0 63.5 5.5t69 23.5t65.5 46t47 78.5t19 116.5v61q0 65 -19.5 115.5t-48.5 78.5t-67.5 46t-70 23.5t-62.5 5.5h-309v-600z" />
<glyph unicode="S" d="M209 369q0 20 14.5 34.5t36.5 14.5q20 0 34.5 -14.5t14.5 -34.5q0 -126 82.5 -195.5t212.5 -69.5q142 0 228 65.5t86 182.5q0 85 -43 158t-119 117l-350 204q-83 46 -133 133.5t-50 178.5q0 142 106 233.5t275 91.5q177 0 285 -95.5t108 -252.5q0 -20 -15.5 -35.5 t-35.5 -15.5t-34.5 14.5t-14.5 36.5q0 110 -83 176t-210 66q-52 0 -100 -13t-88.5 -38.5t-65 -69.5t-24.5 -102q0 -68 39.5 -130t103.5 -96l346 -204q205 -128 205 -355q0 -162 -116 -259t-298 -97q-181 0 -289 104.5t-108 266.5z" />
<glyph unicode="T" d="M166 1395q0 22 15.5 37.5t35.5 15.5h795q20 0 35.5 -15.5t15.5 -37.5q0 -20 -15.5 -36t-35.5 -16h-346v-1302q0 -23 -15 -37t-37 -14q-23 0 -36 14t-13 37v1302h-348q-20 0 -35.5 16t-15.5 36z" />
<glyph unicode="U" d="M221 377v1055q0 22 14 36.5t37 14.5q21 0 36.5 -15t15.5 -36v-1055q0 -66 22 -117t53.5 -78.5t74 -45t75.5 -22.5t65 -5t65 5.5t75 23t73.5 45t53.5 78t22 116.5v1055q0 22 13.5 36.5t35.5 14.5t38 -15t16 -36v-1057q0 -40 -11 -85.5t-40.5 -97t-73 -92t-115 -67.5 t-160.5 -27q-87 0 -156.5 27t-111 67.5t-69 92.5t-38 97.5t-10.5 86.5z" />
<glyph unicode="V" d="M203 1409q-2 8 -2 16q-1 15 7 27q12 20 34 25q6 1 12 1q15 0 28 -8q19 -12 23 -36l293 -1309h25l299 1311q4 24 23 35q13 8 27 8q6 0 13 -2q21 -5 33 -25q8 -13 8 -27q0 -8 -2 -16l-319 -1384h-179z" />
<glyph unicode="W" d="M92 1419q-1 4 -1 9q-1 20 11 34q14 18 37 21q24 3 41.5 -10t20.5 -37l184 -1307h14l181 877h116l181 -877h12l186 1311q3 24 23 36q15 9 32 10q4 0 9 -1q23 -3 35 -22q10 -15 11 -33q0 -4 -1 -9l-211 -1401h-170l-166 791l-164 -791h-170z" />
<glyph unicode="X" d="M218 36q-3 9 -4 17q0 13 7 25l328 663l-322 652q-10 23 -3 43.5t28 31.5q12 7 26 7q8 0 17 -3q23 -7 33 -28l282 -600l283 600q10 21 32 28q9 3 17 3l27 -7q22 -10 28.5 -31t-4.5 -44l-321 -652l327 -663q7 -12 7 -25q0 -8 -3 -17q-7 -22 -28 -32q-13 -6 -25 -6 q-8 0 -18 4q-22 8 -33 29l-289 608l-288 -606q-10 -22 -32 -30q-10 -4 -21 -4l-23 5q-20 10 -28 32z" />
<glyph unicode="Y" d="M208 1437q8 20 28 29q11 5 22 5t20 -5q21 -8 29 -28l307 -766l304 766q8 20 28 28q10 5 20 5q11 0 23 -5q20 -9 28 -28q4 -9 4 -19t-5 -22l-352 -858v-498q0 -23 -15 -37t-37 -14q-23 0 -36 14t-13 37v498l-354 858q-5 11 -5 21t4 19z" />
<glyph unicode="Z" d="M207 1395q0 23 13 38t36 15h694v-98l-628 -1221h647q22 0 36.5 -15.5t14.5 -37.5q0 -23 -14.5 -36t-36.5 -13h-758v102l625 1217h-580q-23 0 -36 13.5t-13 35.5z" />
<glyph unicode="[" d="M463 -145v1718h258q19 0 32 -13t13 -32q0 -20 -13 -32.5t-32 -12.5h-162v-1536h162q19 0 32 -14t13 -33t-13 -32t-32 -13h-258z" />
<glyph unicode="\" d="M303 1524q-6 20 4.5 38.5t30.5 24.5q22 6 39.5 -2.5t23.5 -28.5l521 -1597q6 -19 -3 -37.5t-30 -25.5q-19 -6 -39.5 4t-26.5 30z" />
<glyph unicode="]" d="M463 -100q0 19 13 33t32 14h162v1536h-162q-19 0 -32 12.5t-13 32.5q0 19 13 32t32 13h258v-1718h-258q-19 0 -32 13t-13 32z" />
<glyph unicode="^" d="M317.5 914.5q-6.5 17.5 1.5 35.5l242 449h103l243 -451q9 -19 1.5 -37t-25.5 -26q-15 -7 -35 -0.5t-29 22.5l-207 387l-211 -389q-8 -18 -29 -21t-34 5q-14 8 -20.5 25.5z" />
<glyph unicode="_" d="M57 -262q0 18 11.5 29.5t31.5 11.5h1026q20 0 32.5 -11.5t12.5 -29.5t-12.5 -31.5t-32.5 -13.5h-1026q-19 0 -31 13.5t-12 31.5z" />
<glyph unicode="`" d="M479 1503h125l139 -289h-90z" />
<glyph unicode="a" d="M233 377v346q0 169 104 270t277 101q77 0 155 -31t126 -90v86q0 21 13.5 36t33.5 15t35.5 -15.5t15.5 -35.5v-1018q0 -21 -15 -35t-36 -14q-20 0 -33.5 13.5t-13.5 35.5v90q-52 -65 -127 -96t-154 -31q-177 0 -279 100t-102 273zM340 377q0 -39 6.5 -73.5t25.5 -71 t48.5 -62.5t79 -42.5t114.5 -16.5q129 0 204 70t75 196v346q0 49 -13 92.5t-42.5 84.5t-86.5 65t-137 24q-129 0 -201.5 -70t-72.5 -196v-346z" />
<glyph unicode="b" d="M238 43v1384q0 22 13 37t36 15q21 0 36 -15.5t15 -36.5v-444q48 55 123.5 83t152.5 28q175 0 276 -99.5t101 -271.5v-346q0 -171 -102 -272t-275 -101q-71 0 -146.5 28.5t-127.5 80.5v-70q0 -22 -15.5 -37.5t-35.5 -15.5q-23 0 -37 15.5t-14 37.5zM340 377q0 -39 7 -74 t25.5 -71t48.5 -62t79.5 -42.5t113.5 -16.5q128 0 200.5 70t72.5 196v346q0 39 -6.5 73.5t-25.5 71t-48.5 62.5t-79 42.5t-113.5 16.5q-129 0 -201.5 -70t-72.5 -196v-346z" />
<glyph unicode="c" d="M236 377v346q0 169 102.5 270t275.5 101q166 0 268.5 -93t108.5 -251q0 -21 -15.5 -36.5t-39.5 -15.5q-22 0 -35.5 13.5t-13.5 36.5q-3 47 -17 86t-43.5 76t-83.5 58t-129 21q-129 0 -201.5 -70t-72.5 -196v-346q0 -39 6.5 -73.5t25.5 -71t48.5 -62.5t79 -42.5 t114.5 -16.5q123 0 195 62.5t78 176.5q0 20 15.5 36.5t35.5 16.5q21 0 36 -16.5t17 -36.5q-14 -155 -115.5 -250.5t-261.5 -95.5q-177 0 -277.5 99.5t-100.5 273.5z" />
<glyph unicode="d" d="M236 377v346q0 172 100.5 271.5t275.5 99.5q77 0 153 -28t124 -83v444q0 21 15.5 36.5t35.5 15.5q23 0 36 -15t13 -37v-1384q0 -22 -14 -37.5t-37 -15.5q-20 0 -35.5 15.5t-15.5 37.5v70q-51 -54 -126.5 -81.5t-148.5 -27.5q-173 0 -274.5 101t-101.5 272zM340 377 q0 -126 72 -196t200 -70q80 0 136.5 24t85 65t41 84.5t12.5 92.5v346q0 126 -73 196t-202 70q-80 0 -136 -24t-84 -65t-40 -84t-12 -93v-346z" />
<glyph unicode="e" d="M238 377v346q0 169 101.5 270t274.5 101q175 0 276 -99.5t101 -271.5v-199h-651v-147q0 -39 6.5 -73.5t25.5 -71t48.5 -62.5t79 -42.5t114.5 -16.5q123 0 195 62.5t78 176.5q0 20 15.5 36.5t35.5 16.5t36.5 -15.5t16.5 -37.5q-14 -157 -115.5 -251.5t-261.5 -94.5 q-176 0 -276 99.5t-100 273.5zM340 631h549v92q0 49 -12.5 92.5t-41.5 84.5t-85.5 65t-135.5 24q-129 0 -201.5 -70t-72.5 -196v-92z" />
<glyph unicode="f" d="M305 903q0 20 13.5 34.5t33.5 14.5h172v222q0 142 68.5 207t220.5 65h115q20 0 34.5 -15.5t14.5 -35.5t-14.5 -33.5t-34.5 -13.5h-129q-30 0 -57 -6.5t-54.5 -21.5t-44 -46.5t-16.5 -75.5v-246h348q19 0 34 -14.5t15 -34.5q0 -21 -15 -35t-34 -14h-348v-811 q0 -23 -15 -37t-37 -14t-36.5 14t-14.5 37v811h-172q-20 0 -33.5 13.5t-13.5 35.5z" />
<glyph unicode="g" d="M236 377v346q0 169 102.5 270t275.5 101q78 0 153.5 -26t121.5 -79v68q0 22 14 37.5t35 15.5q22 0 37.5 -15.5t15.5 -37.5v-1153q0 -80 -17.5 -139.5t-45.5 -95.5t-70 -57.5t-84 -29.5t-94 -8h-59q-22 0 -36 13.5t-14 33.5q0 22 14 35.5t36 13.5h75q85 0 138 49.5 t53 151.5v242q-52 -52 -127 -80.5t-146 -28.5q-177 0 -277.5 99.5t-100.5 273.5zM340 377q0 -39 6.5 -73.5t25.5 -71t48.5 -62.5t79 -42.5t114.5 -16.5q128 0 200.5 70t72.5 196v346q0 39 -7 74t-26 71t-48.5 62t-78.5 42.5t-113 16.5q-129 0 -201.5 -70t-72.5 -196v-346z " />
<glyph unicode="h" d="M233 43v1384q0 22 14.5 37t37.5 15q21 0 36 -15.5t15 -36.5v-446q49 58 124.5 85.5t153.5 27.5q175 0 277 -99.5t102 -271.5v-680q0 -22 -16.5 -37.5t-38.5 -15.5q-20 0 -35.5 15.5t-15.5 37.5v680q0 39 -6.5 73.5t-25.5 71t-48.5 62.5t-79 42.5t-113.5 16.5 q-120 0 -198 -69.5t-78 -176.5v-700q0 -22 -15.5 -37.5t-35.5 -15.5q-22 0 -38 15.5t-16 37.5z" />
<glyph unicode="i" d="M307 74q0 22 13.5 35.5t33.5 13.5h283v860h-283q-20 0 -33.5 13.5t-13.5 33.5q0 22 13.5 35.5t33.5 13.5h387v-956h213q20 0 33.5 -13.5t13.5 -35.5q0 -21 -13 -34t-34 -13h-600q-21 0 -34 13t-13 34zM618 1290v172h142v-172h-142z" />
<glyph unicode="j" d="M246 1030q0 22 13.5 35.5t35.5 13.5h506v-1231q0 -147 -74.5 -210.5t-214.5 -63.5h-158q-20 0 -34.5 14.5t-14.5 34.5t14.5 35.5t34.5 15.5h199q30 0 61 12.5t57.5 48t26.5 87.5v1161h-403q-22 0 -35.5 13.5t-13.5 33.5zM678 1290v172h139v-172h-139z" />
<glyph unicode="k" d="M283 43v1387q0 22 14.5 36.5t36.5 14.5t37.5 -14.5t15.5 -36.5v-908l436 547q12 15 34.5 18t37.5 -10q16 -14 18.5 -32.5t-10.5 -36.5l-289 -363l326 -573q9 -19 9 -33q0 -24 -25 -39q-20 -10 -41.5 -4.5t-32.5 24.5l-305 541l-158 -199v-319q0 -23 -15.5 -37t-37.5 -14 t-36.5 14t-14.5 37z" />
<glyph unicode="l" d="M137 74q0 22 13.5 35.5t35.5 13.5h283v1229h-203q-22 0 -35.5 13.5t-13.5 33.5q0 22 13.5 35.5t35.5 13.5h303v-1325h295q22 0 35.5 -13.5t13.5 -35.5t-13.5 -34.5t-35.5 -12.5h-678q-22 0 -35.5 12.5t-13.5 34.5z" />
<glyph unicode="m" d="M121 41v1020q0 23 13 38t36 15q22 0 36.5 -15.5t14.5 -37.5l2 -66q33 47 87.5 73t113.5 26q72 0 125.5 -40t81.5 -98q36 68 103 103t138 35q238 0 238 -297v-756q0 -23 -14.5 -37t-36.5 -14q-23 0 -36 14t-13 37v747q0 26 -1.5 45.5t-6 45.5t-14 44.5t-25 35t-40 25.5 t-57.5 9q-104 0 -155.5 -74.5t-51.5 -189.5v-688q0 -22 -14.5 -37.5t-36.5 -15.5t-36.5 15.5t-14.5 37.5v754q0 198 -137 198q-197 0 -197 -264v-688q0 -22 -14.5 -37.5t-36.5 -15.5t-36.5 15.5t-14.5 37.5z" />
<glyph unicode="n" d="M236 43v1014q0 22 14 37.5t37 15.5q20 0 35.5 -15.5t15.5 -37.5v-101q31 63 116.5 100.5t161.5 37.5q174 0 274.5 -99.5t100.5 -271.5v-680q0 -23 -15.5 -37t-37.5 -14t-35.5 14t-13.5 37v680q0 39 -7 74t-26 71t-48.5 62t-78.5 42.5t-113 16.5q-121 0 -199.5 -73 t-78.5 -189v-684q0 -23 -15 -37t-36 -14q-23 0 -37 14t-14 37z" />
<glyph unicode="o" d="M236 377v346q0 169 102.5 270t275.5 101q175 0 276 -99.5t101 -271.5v-346q0 -170 -102.5 -270.5t-274.5 -100.5q-177 0 -277.5 99t-100.5 272zM340 377q0 -50 12 -93t40 -84.5t85 -66t137 -24.5q128 0 200.5 71t72.5 197v346q0 39 -6.5 73.5t-25.5 71t-48.5 62.5 t-79 42.5t-113.5 16.5q-129 0 -201.5 -70t-72.5 -196v-346z" />
<glyph unicode="p" d="M240 -410v1467q0 23 13 38t36 15q20 0 35.5 -15.5t15.5 -37.5v-72q78 109 274 109q173 0 275 -101t102 -270v-346q0 -174 -100 -273.5t-277 -99.5q-170 0 -274 115v-529q0 -20 -15.5 -36.5t-35.5 -16.5q-22 0 -35.5 16t-13.5 37zM342 377q0 -126 72 -196t200 -70 q80 0 136.5 24t85 65t41 84.5t12.5 92.5v346q0 126 -73 196t-202 70q-80 0 -136 -24t-84 -65t-40 -84t-12 -93v-346z" />
<glyph unicode="q" d="M242 377v346q0 169 101.5 270t274.5 101q197 0 275 -109v72q0 22 15.5 37.5t35.5 15.5q23 0 36 -15t13 -38v-1467q0 -21 -13.5 -37t-35.5 -16q-20 0 -35.5 16.5t-15.5 36.5v529q-104 -115 -275 -115q-176 0 -276 99.5t-100 273.5zM344 377q0 -39 6.5 -73.5t25.5 -71 t48.5 -62.5t79 -42.5t114.5 -16.5q128 0 200.5 70t72.5 196v346q0 39 -7 74t-26 71t-48.5 62t-78.5 42.5t-113 16.5q-129 0 -201.5 -70t-72.5 -196v-346z" />
<glyph unicode="r" d="M219 74q0 21 13 36t34 15h152v936q0 22 14 37.5t37 15.5q22 0 36.5 -15.5t14.5 -37.5v-60q40 43 101 68t124 25q144 0 230 -75t90 -228q0 -20 -14.5 -35t-34.5 -15t-35.5 15t-15.5 35q-11 200 -220 200q-94 0 -158.5 -60t-64.5 -169v-637h328q20 0 33.5 -15t13.5 -36 q0 -20 -13.5 -34.5t-33.5 -14.5h-584q-21 0 -34 14t-13 35z" />
<glyph unicode="s" d="M233 313q0 20 16 36t38 16q20 0 35.5 -16t15.5 -36q3 -196 276 -196q45 0 79 3t74.5 15t67 32t44.5 57.5t18 88.5t-35 97.5t-92 68.5l-328 94q-88 23 -138 85.5t-50 148.5q0 76 28.5 132.5t79 89t113.5 48t139 15.5q174 0 275 -77t104 -227q0 -21 -15.5 -35t-37.5 -14 t-35.5 13.5t-13.5 35.5q-3 101 -78.5 151t-202.5 50q-254 0 -254 -182q0 -43 32 -81.5t87 -55.5l328 -92q92 -28 145 -98t53 -167q0 -84 -29.5 -144.5t-84 -95t-122 -50t-151.5 -15.5q-173 0 -276.5 78.5t-104.5 226.5z" />
<glyph unicode="t" d="M143 1024q0 20 13 34.5t34 14.5h193v354q0 22 14 37t35 15q22 0 37.5 -15t15.5 -37v-354h332q20 0 35.5 -15t15.5 -34q0 -21 -15 -35t-36 -14h-332v-631q0 -128 45.5 -185t139.5 -57q95 0 144.5 46.5t53.5 154.5q0 19 16 34t36 15q19 0 34 -16t15 -35 q-10 -150 -86.5 -225.5t-212.5 -75.5q-139 0 -213 85t-74 253v637h-193q-22 0 -34.5 13.5t-12.5 35.5z" />
<glyph unicode="u" d="M236 377v680q0 22 14 37.5t37 15.5q20 0 35.5 -15.5t15.5 -37.5v-680q0 -39 7 -74t25.5 -71t48.5 -62t79.5 -42.5t113.5 -16.5q121 0 199 66t78 177v703q0 22 14 37.5t35 15.5q22 0 37.5 -15.5t15.5 -37.5v-1014q0 -23 -15.5 -37t-37.5 -14t-35.5 14t-13.5 37v78 q-52 -58 -126.5 -86.5t-150.5 -28.5q-177 0 -276.5 98.5t-99.5 272.5z" />
<glyph unicode="v" d="M272 1036q-2 9 -2 17q0 14 6 25q10 18 35 24q8 2 15 2q16 0 28 -8q20 -12 23 -35l211 -934h53l209 934q6 21 24 33q14 9 29 9q6 0 12 -1q23 -5 35 -24q8 -13 8 -28q0 -8 -2 -16l-237 -1007h-209z" />
<glyph unicode="w" d="M76 1047q-1 6 -1 11q0 14 9 28q13 20 35 24q7 1 13 1q16 -1 29 -9q19 -12 23 -35l166 -938h15l188 950h125l188 -950h15l166 936q4 25 23.5 36.5t41.5 6.5q22 -4 34 -24q8 -14 9 -27q0 -6 -2 -13l-192 -1024h-168l-177 891l-178 -891h-168z" />
<glyph unicode="x" d="M283 30q-2 7 -2 13q0 14 8 27l266 479l-256 467q-12 18 -8.5 39t24.5 32q13 7 27 7q7 0 14 -2q22 -6 31 -23l227 -420l228 420q9 19 30 24q7 2 13 2q14 0 28 -8q21 -11 25 -32t-8 -39l-256 -467l266 -479q8 -13 7 -27q0 -6 -1 -13q-5 -21 -22 -30q-11 -6 -24 -6 q-7 0 -16 2q-23 6 -32 20l-238 435l-237 -435q-9 -14 -32 -20q-8 -2 -16 -2q-13 0 -24 6q-17 9 -22 30z" />
<glyph unicode="y" d="M264 1040q-1 6 -1 13q0 15 8 29q12 20 32 24q8 2 15 2q14 0 28 -8q19 -12 23 -35l211 -934h61l217 934q4 22 24 34q14 8 29 8q7 0 13 -1q21 -4 32 -24q9 -14 9 -29q0 -6 -2 -13l-304 -1251q-31 -129 -99.5 -176t-194.5 -47h-17q-21 0 -36 15t-15 36q0 22 14.5 37.5 t36.5 15.5h25q154 0 192 133l51 220h-110z" />
<glyph unicode="z" d="M217 1026q0 19 15.5 34t35.5 15h647v-100l-557 -848h603q20 0 35.5 -15.5t15.5 -35.5t-15.5 -34.5t-35.5 -14.5h-723v92l565 856h-535q-20 0 -35.5 15.5t-15.5 35.5z" />
<glyph unicode="{" d="M465 106v1246q0 70 11.5 107t39.5 65q51 51 174 51h29q19 0 32 -13t13 -32q0 -20 -13 -32.5t-32 -12.5h-19q-72 0 -91 -9q-12 -5 -21 -14q-25 -28 -25 -135v-1204q0 -51 4.5 -79.5t20.5 -45.5q16 -16 40.5 -20.5t71.5 -4.5h19q19 0 32 -13t13 -32t-13 -33t-32 -14h-29 q-121 0 -174 53q-28 27 -39.5 64t-11.5 108z" />
<glyph unicode="|" d="M565 -76v1622q0 20 13 34.5t34 14.5q20 0 35 -15t15 -34v-1622q0 -20 -15 -35.5t-35 -15.5q-21 0 -34 15t-13 36z" />
<glyph unicode="}" d="M465 -72q0 19 13 32t32 13h18q47 0 72 4.5t41 20.5q16 17 20.5 45.5t4.5 79.5v1204q0 107 -25 135q-10 11 -27 16.5t-31 6t-44 0.5h-11h-18q-19 0 -32 12.5t-13 32.5q0 19 13 32t32 13h29q123 0 174 -51q28 -28 39.5 -65t11.5 -107v-1246q0 -71 -11.5 -108t-39.5 -64 q-53 -53 -174 -53h-29q-19 0 -32 14t-13 33z" />
<glyph unicode="~" d="M249.5 535.5q0.5 17.5 14.5 31.5q60 54 102.5 74.5t94.5 20.5q40 0 86 -17q21 -8 66 -30.5t83 -36t74 -13.5q35 0 62.5 13t70.5 53q15 15 32 15t30 -13t13 -31t-15 -31q-63 -59 -102 -76.5t-95 -17.5q-42 0 -151 48t-160 48q-39 0 -67.5 -13t-70.5 -54q-12 -11 -28 -11.5 t-27 9.5q-13 14 -12.5 31.5z" />
<glyph unicode="&#xa0;" />
<glyph unicode="&#xa2;" d="M98 729q0 212 149 361t361 149q138 0 255 -68t185 -185.5t68 -256.5t-68 -257t-185 -186.5t-255 -68.5q-139 0 -256.5 68.5t-185.5 186.5t-68 257zM199 729q0 -172 119.5 -295t289.5 -123q169 0 289.5 123t120.5 295q0 171 -121 294.5t-289 123.5q-169 0 -289 -123.5 t-120 -294.5zM467 418v583h178q48 0 82.5 -17t50.5 -44.5t22.5 -52t6.5 -49.5v-43q0 -24 -6.5 -48.5t-22.5 -52t-50 -44.5t-81 -17h-90v-215h-90zM557 725h88q25 0 47.5 16.5t22.5 55.5v39q0 40 -22.5 56.5t-47.5 16.5h-88v-184z" />
<glyph unicode="&#xa3;" d="M182 770q0 22 13.5 35.5t33.5 13.5h64v256q0 165 98.5 266t265.5 101t270 -103t103 -272q0 -23 -14.5 -36t-36.5 -13q-23 0 -37 13t-14 36q0 65 -19.5 115.5t-49 79.5t-68 47t-71.5 24t-65 6q-35 0 -68 -6t-69.5 -23t-63.5 -44t-45 -73t-18 -106v-268h438 q21 0 34.5 -13.5t13.5 -35.5q0 -20 -14 -33.5t-34 -13.5h-438v-617h602q20 0 35.5 -15.5t15.5 -37.5q0 -20 -15.5 -35.5t-35.5 -15.5h-700v721h-64q-20 0 -33.5 13.5t-13.5 33.5z" />
<glyph unicode="&#xa4;" d="M131 539l33 94h149v186h-182l33 99h149v180q0 41 8.5 84t33.5 95t64.5 91.5t108 66.5t156.5 27t156 -27t106.5 -66.5t63.5 -92.5t33 -97.5t8 -88.5q0 -21 -15.5 -35.5t-34.5 -14.5q-22 0 -35.5 14t-13.5 36q0 66 -19.5 117t-48 79t-67 45.5t-70 23t-63.5 5.5 q-29 0 -60.5 -5.5t-70 -23t-68 -45.5t-49.5 -78.5t-20 -115.5v-172h442l-35 -99h-407v-186h381l-33 -94h-348v-162q0 -66 19.5 -116.5t48.5 -78t67.5 -45t70 -23t62.5 -5.5q32 0 63.5 5.5t70 23t67 45.5t48 79t19.5 117q0 19 14 34t35 15q19 0 34.5 -15t15.5 -34 q0 -45 -8.5 -90t-34 -98t-65 -93t-109 -67t-158.5 -27q-86 0 -153.5 27t-105.5 66.5t-63 92.5t-33 97.5t-8 87.5v162h-182z" />
<glyph unicode="&#xa6;" d="M567 -23v582q0 21 13 34t34 13q22 0 35 -13t13 -34v-582q0 -21 -13 -34t-35 -13q-21 0 -34 13t-13 34zM567 899v580q0 22 12.5 35.5t34.5 13.5t35 -13.5t13 -35.5v-580q0 -22 -13 -34.5t-35 -12.5t-34.5 12.5t-12.5 34.5z" />
<glyph unicode="&#xa7;" d="M229 313q0 20 16 36t38 16q20 0 35.5 -16t15.5 -36q3 -196 276 -196q45 0 79 3t74.5 15t67 32t44.5 57.5t18 88.5q0 52 -36 97t-93 67q-26 8 -80.5 22.5t-75.5 20.5q-18 5 -192 58q-78 24 -126 84.5t-48 144.5q0 111 65 186q-65 62 -65 166q0 76 28.5 132.5t79 89 t113.5 48t139 15.5q175 0 275.5 -76.5t103.5 -226.5q0 -21 -15.5 -35t-37.5 -14t-35.5 13.5t-13.5 35.5q-3 100 -78.5 150t-202.5 50q-254 0 -254 -182q0 -101 105 -133q11 -3 37 -12t42 -13q51 -16 147 -42.5t122 -34.5q95 -28 147.5 -94.5t52.5 -161.5q0 -115 -57 -185 q57 -70 57 -170q0 -84 -29.5 -144.5t-84 -95t-122 -50t-151.5 -15.5q-173 0 -276.5 78.5t-104.5 226.5zM344 807q0 -100 105 -135q15 -3 42 -11.5t37 -11.5q52 -16 157 -46l112 -32q42 -13 63 -26q33 48 33 123q0 51 -36 95t-93 66q-26 8 -80.5 22.5t-75.5 20.5 q-40 10 -108 31.5t-84 26.5q-18 6 -21 8q-51 -45 -51 -131z" />
<glyph unicode="&#xa8;" d="M328 1288v176h141v-176h-141zM758 1290v174h141v-174h-141z" />
<glyph unicode="&#xa9;" d="M98 729q0 139 68 256.5t185 185.5t255 68q212 0 361 -149t149 -361q0 -139 -68 -257t-185.5 -186.5t-256.5 -68.5q-138 0 -255 68.5t-185 186.5t-68 257zM199 729q0 -171 119.5 -293.5t287.5 -122.5q170 0 291 122.5t121 293.5q0 169 -121 292.5t-291 123.5 q-168 0 -287.5 -123t-119.5 -293zM432 592v270q0 24 7 49.5t24 52.5t52 44.5t83 17.5t83 -17.5t51 -45t23 -53t7 -50.5v-49h-92v49q0 41 -22 56.5t-50 15.5q-27 0 -50.5 -16t-23.5 -56v-266q0 -41 23 -56.5t51 -15.5q72 0 72 72v70h92v-72q0 -24 -7 -49t-23.5 -52.5 t-51.5 -45t-84 -17.5q-48 0 -82.5 17.5t-51 44.5t-23.5 52.5t-7 49.5z" />
<glyph unicode="&#xab;" d="M225 553l285 285q12 12 34 12.5t36 -12.5q14 -14 14 -36t-14 -36l-218 -213l218 -217q14 -14 14 -35t-14 -35t-36 -14t-34 14zM631 553l284 285q12 12 34 12.5t36 -12.5q13 -14 13 -36t-13 -36l-217 -213l217 -217q13 -14 13 -35t-13 -35t-35.5 -14t-34.5 14z" />
<glyph unicode="&#xac;" />
<glyph unicode="&#xad;" d="M315 557q0 20 14 33.5t36 13.5h497q22 0 35.5 -13.5t13.5 -33.5q0 -22 -13.5 -35.5t-35.5 -13.5h-497q-22 0 -36 13.5t-14 35.5z" />
<glyph unicode="&#xae;" d="M98 729q0 212 149 361t361 149t360 -149t148 -361q0 -139 -67.5 -257t-184.5 -186.5t-256 -68.5t-256.5 68.5t-185.5 186.5t-68 257zM199 729q0 -172 119.5 -295t289.5 -123q169 0 289.5 123t120.5 295q0 171 -121 294.5t-289 123.5q-169 0 -289 -123.5t-120 -294.5z M451 430v584h180q39 0 69.5 -12t47.5 -29.5t28.5 -40.5t15 -42.5t3.5 -37.5v-35q0 -43 -27 -90t-90 -68l119 -229h-107l-112 223h-35v-223h-92zM543 745h90q22 0 44.5 16.5t22.5 55.5v31q0 40 -22 56t-47 16h-88v-175z" />
<glyph unicode="&#xaf;" d="M303 1303q0 22 13.5 35.5t35.5 13.5h525q22 0 35.5 -13.5t13.5 -35.5q0 -21 -14 -34.5t-35 -13.5h-525q-22 0 -35.5 13.5t-13.5 34.5z" />
<glyph unicode="&#xb0;" horiz-adv-x="1024" />
<glyph unicode="&#xb4;" d="M483 1212l140 291h125l-175 -291h-90z" />
<glyph unicode="&#xb6;" d="M221 1128q0 165 92 247.5t265 82.5h428v-1431l-99 -2v1347h-227v-1347h-98v798q-169 3 -265 89.5t-96 215.5z" />
<glyph unicode="&#xb7;" d="M528 473v170h170v-170h-170z" />
<glyph unicode="&#xb8;" d="M500 -408l133 279h94l-111 -279h-116z" />
<glyph unicode="&#xbb;" d="M230 301q0 21 14 35l217 217l-217 213q-14 14 -14 36t14 36q14 13 35.5 12.5t33.5 -12.5l285 -285l-285 -287q-12 -14 -33.5 -14t-35.5 14t-14 35zM636 301q0 21 13 35l217 217l-217 213q-13 14 -13 36t13 36q14 13 36 12.5t34 -12.5l285 -285l-285 -287 q-12 -14 -34.5 -14t-35.5 14t-13 35z" />
<glyph unicode="&#xc0;" d="M147 61q-10 -54 39 -63q51 -7 62 39l98 403h537l98 -403q4 -24 22.5 -34t40.5 -5q20 5 31.5 22.5t5.5 38.5l-329 1389h-279zM369 543l184 805h123l180 -805h-487zM457 1878h123l143 -289h-94z" />
<glyph unicode="&#xc1;" d="M147 61q-10 -54 39 -63q51 -7 62 39l98 403h537l98 -403q4 -24 22.5 -34t40.5 -5q20 5 31.5 22.5t5.5 38.5l-329 1389h-279zM369 543l184 805h123l180 -805h-487zM479 1587l139 291h125l-174 -291h-90z" />
<glyph unicode="&#xc2;" d="M147 61q-10 -54 39 -63q51 -7 62 39l98 403h537l98 -403q4 -24 22.5 -34t40.5 -5q20 5 31.5 22.5t5.5 38.5l-329 1389h-279zM369 543l184 805h123l180 -805h-487zM387 1622q0 20 12 33l183 196h65l182 -192q13 -15 13 -35t-13 -33q-12 -12 -33 -11.5t-36 15.5l-146 156 l-147 -160q-15 -15 -35 -15.5t-33 13.5q-12 13 -12 33z" />
<glyph unicode="&#xc3;" d="M147 61q-10 -54 39 -63q51 -7 62 39l98 403h537l98 -403q4 -24 22.5 -34t40.5 -5q20 5 31.5 22.5t5.5 38.5l-329 1389h-279zM306.5 1653.5q2.5 18.5 17.5 32.5q51 48 86.5 63.5t72.5 15.5q47 0 128.5 -45t127.5 -45q52 0 105 51q12 12 31 12t30 -12q13 -13 12 -33.5 t-18 -33.5q-90 -76 -158 -76q-43 0 -128.5 45t-127.5 45q-48 0 -98 -45q-19 -19 -39 -20.5t-31 12.5q-13 15 -10.5 33.5zM369 543l184 805h123l180 -805h-487z" />
<glyph unicode="&#xc4;" d="M147 61q-10 -54 39 -63q51 -7 62 39l98 403h537l98 -403q4 -24 22.5 -34t40.5 -5q20 5 31.5 22.5t5.5 38.5l-329 1389h-279zM326 1614v174h141v-174h-141zM369 543l184 805h123l180 -805h-487zM756 1614v174h141v-174h-141z" />
<glyph unicode="&#xc5;" d="M147 61q-10 -54 39 -63q51 -7 62 39l98 403h537l98 -403q4 -24 22.5 -34t40.5 -5q20 5 31.5 22.5t5.5 38.5l-329 1389h-279zM369 543l184 805h123l180 -805h-487zM401 1751q0 83 59 143t142 60q85 0 145 -59t60 -144q0 -82 -61 -141.5t-144 -59.5t-142 59.5t-59 141.5z M487 1751q0 -47 34 -81t81 -34q49 0 84 34t35 81q0 50 -34.5 83.5t-84.5 33.5q-48 0 -81.5 -33.5t-33.5 -83.5z" />
<glyph unicode="&#xc7;" d="M223 377v721q0 39 10.5 83t39 95.5t70.5 91.5t113 67t160 27q85 0 153.5 -25.5t110.5 -64t70.5 -88.5t39.5 -95.5t11 -88.5q0 -21 -15 -35t-36 -14q-20 0 -33.5 13.5t-13.5 35.5q-1 64 -23 113.5t-53.5 76.5t-72.5 44t-74 22.5t-64 5.5q-32 0 -65 -5.5t-75.5 -23t-74 -45 t-53.5 -78t-22 -116.5v-717q0 -66 22 -117t53.5 -78.5t74 -45t75.5 -22.5t65 -5t65 5.5t74.5 23t73 45.5t53 79t21.5 117q0 21 13.5 36t33.5 15q22 0 38 -15.5t16 -35.5q0 -39 -10 -83t-35.5 -93t-64 -89.5t-101 -69.5t-140.5 -36l-98 -244h-115l115 246q-74 8 -134 37.5 t-96 69.5t-60 88.5t-33 91t-9 80.5z" />
<glyph unicode="&#xc8;" d="M223 25v1423h729q20 0 36 -15.5t16 -35.5q0 -19 -16 -34t-36 -15h-626v-519h579q19 0 34 -15.5t15 -35.5q0 -19 -15 -34t-34 -15h-577v-604h624q20 0 36 -15.5t16 -35.5t-15.5 -34.5t-36.5 -14.5h-729zM463 1886h123l143 -289h-94z" />
<glyph unicode="&#xc9;" d="M223 25v1423h729q20 0 36 -15.5t16 -35.5q0 -19 -16 -34t-36 -15h-626v-519h579q19 0 34 -15.5t15 -35.5q0 -19 -15 -34t-34 -15h-577v-604h624q20 0 36 -15.5t16 -35.5t-15.5 -34.5t-36.5 -14.5h-729zM461 1573l141 289h125l-172 -289h-94z" />
<glyph unicode="&#xca;" d="M223 25v1423h729q20 0 36 -15.5t16 -35.5q0 -19 -16 -34t-36 -15h-626v-519h579q19 0 34 -15.5t15 -35.5q0 -19 -15 -34t-34 -15h-577v-604h624q20 0 36 -15.5t16 -35.5t-15.5 -34.5t-36.5 -14.5h-729zM387 1622q0 20 12 33l183 196h65l182 -192q13 -15 13 -35t-13 -33 q-12 -12 -33 -11.5t-36 15.5l-146 156l-147 -160q-15 -15 -35 -15.5t-33 13.5q-12 13 -12 33z" />
<glyph unicode="&#xcb;" d="M223 25v1423h729q20 0 36 -15.5t16 -35.5q0 -19 -16 -34t-36 -15h-626v-519h579q19 0 34 -15.5t15 -35.5q0 -19 -15 -34t-34 -15h-577v-604h624q20 0 36 -15.5t16 -35.5t-15.5 -34.5t-36.5 -14.5h-729zM317 1661v176h142v-176h-142zM748 1663v174h141v-174h-141z" />
<glyph unicode="&#xcc;" d="M326 74q0 22 14 37.5t37 15.5h186v1219h-186q-23 0 -37 13.5t-14 35.5q0 23 15 38t40 15h467q22 0 37.5 -15.5t15.5 -37.5q0 -21 -15.5 -35t-37.5 -14h-186v-1219h186q22 0 37.5 -15.5t15.5 -37.5q0 -21 -15.5 -35t-37.5 -14h-471q-23 0 -37 13.5t-14 35.5zM444 1878h123 l144 -289h-95z" />
<glyph unicode="&#xcd;" d="M326 74q0 22 14 37.5t37 15.5h186v1219h-186q-23 0 -37 13.5t-14 35.5q0 23 15 38t40 15h467q22 0 37.5 -15.5t15.5 -37.5q0 -21 -15.5 -35t-37.5 -14h-186v-1219h186q22 0 37.5 -15.5t15.5 -37.5q0 -21 -15.5 -35t-37.5 -14h-471q-23 0 -37 13.5t-14 35.5zM477 1587 l141 291h125l-174 -291h-92z" />
<glyph unicode="&#xce;" d="M326 74q0 22 14 37.5t37 15.5h186v1219h-186q-23 0 -37 13.5t-14 35.5q0 23 15 38t40 15h467q22 0 37.5 -15.5t15.5 -37.5q0 -21 -15.5 -35t-37.5 -14h-186v-1219h186q22 0 37.5 -15.5t15.5 -37.5q0 -21 -15.5 -35t-37.5 -14h-471q-23 0 -37 13.5t-14 35.5zM387 1622 q0 20 12 33l183 196h65l182 -192q13 -15 13 -35t-13 -33q-12 -12 -33 -11.5t-36 15.5l-146 156l-147 -160q-15 -15 -35 -15.5t-33 13.5q-12 13 -12 33z" />
<glyph unicode="&#xcf;" d="M326 74q0 22 14 37.5t37 15.5h186v1219h-186q-23 0 -37 13.5t-14 35.5q0 23 15 38t40 15h467q22 0 37.5 -15.5t15.5 -37.5q0 -21 -15.5 -35t-37.5 -14h-186v-1219h186q22 0 37.5 -15.5t15.5 -37.5q0 -21 -15.5 -35t-37.5 -14h-471q-23 0 -37 13.5t-14 35.5zM328 1661v176 h141v-176h-141zM758 1663v174h141v-174h-141z" />
<glyph unicode="&#xd0;" d="M246 338q0 141 85 226t226 85h322v101q0 63 -20.5 111t-55.5 75.5t-77.5 41t-90.5 13.5q-106 0 -180 -48t-80 -152q0 -20 -15.5 -35t-35.5 -15q-19 0 -34.5 15t-15.5 35q4 77 35.5 136.5t82 95t112 53.5t131.5 18q69 0 130.5 -21.5t110 -62t77 -106.5t28.5 -148v-717 q0 -23 -15.5 -37t-37.5 -14t-35.5 14t-13.5 37v90q-54 -58 -130 -90.5t-137 -32.5q-76 0 -139.5 18t-115.5 55.5t-81.5 103.5t-29.5 155zM348 338q0 -232 268 -232q59 0 117.5 26t101 80.5t42.5 123.5v213h-316q-101 0 -157 -55t-56 -156z" />
<glyph unicode="&#xd1;" d="M238 39v1409h192l438 -1329h19v1313q0 21 15 36t36 15q22 0 37.5 -14.5t15.5 -36.5v-1409h-198l-433 1316h-18v-1300q0 -22 -15.5 -37.5t-35.5 -15.5q-22 0 -37.5 15.5t-15.5 37.5zM327 1653.5q2 18.5 17 32.5q51 48 87 63.5t73 15.5q47 0 128.5 -45t127.5 -45 q51 0 104 51q12 12 32 12t30 -12q13 -13 12 -33.5t-18 -33.5q-90 -76 -158 -76q-43 0 -128.5 45t-127.5 45q-48 0 -98 -45q-19 -19 -39 -20.5t-31 12.5q-13 15 -11 33.5z" />
<glyph unicode="&#xd2;" d="M223 377v721q0 39 10.5 83t38.5 95.5t69.5 91.5t112.5 67t160 27q87 0 157.5 -27t113 -67.5t71 -91.5t39.5 -96t11 -84v-721q0 -41 -11 -86t-40 -96.5t-72.5 -92t-115.5 -67.5t-161 -27q-87 0 -156.5 27t-110.5 67.5t-68.5 92.5t-37.5 97t-10 87zM326 377q0 -66 22 -117 t53 -78.5t73 -45t75 -22.5t65 -5t65 5.5t75 23t73.5 45t53.5 78t22 116.5v717q0 65 -22 115.5t-53.5 78.5t-73.5 45.5t-75 23t-65 5.5t-65 -5.5t-75 -23t-73 -45t-53 -78t-22 -116.5v-717zM449 1878h122l144 -289h-94z" />
<glyph unicode="&#xd3;" d="M223 377v721q0 39 10.5 83t38.5 95.5t70 91.5t113.5 67t160.5 27q87 0 157 -27t112.5 -67.5t70.5 -91.5t39 -96t11 -84v-721q0 -41 -11 -86t-40 -96.5t-72 -92t-114.5 -67.5t-160.5 -27q-87 0 -156.5 27t-111 67.5t-69 92.5t-38 97.5t-10.5 86.5zM326 377q0 -66 22 -117 t53.5 -78.5t74 -45t75.5 -22.5t65 -5t65 5.5t74.5 23t73 45t53 78t21.5 116.5v717q0 65 -21.5 115.5t-53 78.5t-73 45.5t-74.5 23t-65 5.5t-65 -5.5t-75.5 -23t-74 -45t-53.5 -78t-22 -116.5v-717zM465 1587l141 291h125l-172 -291h-94z" />
<glyph unicode="&#xd4;" d="M223 377v721q0 39 10.5 83t39 95.5t70.5 91.5t113 67t160 27q87 0 157 -27t112.5 -67.5t70.5 -91.5t39 -96t11 -84v-721q0 -41 -11 -86t-40 -96.5t-72 -92t-114.5 -67.5t-160.5 -27q-87 0 -156.5 27t-111 67.5t-69 92.5t-38 97.5t-10.5 86.5zM326 377q0 -66 22 -117 t53.5 -78.5t74 -45t75.5 -22.5t65 -5t65 5.5t74.5 23t73 45t53 78t21.5 116.5v717q0 65 -21.5 115.5t-53 78.5t-73 45.5t-74.5 23t-65 5.5t-65 -5.5t-75.5 -23t-74 -45t-53.5 -78t-22 -116.5v-717zM387 1622q0 20 12 33l183 196h65l182 -192q13 -15 13 -35t-13 -33 q-12 -12 -33 -11.5t-36 15.5l-146 156l-147 -160q-15 -15 -35 -15.5t-33 13.5q-12 13 -12 33z" />
<glyph unicode="&#xd5;" d="M223 377v721q0 39 10.5 83t38.5 95.5t70 91.5t113.5 67t160.5 27q87 0 157 -27t112.5 -67.5t70.5 -91.5t39 -96t11 -84v-721q0 -41 -11 -86t-40 -96.5t-72 -92t-114.5 -67.5t-160.5 -27q-87 0 -156.5 27t-111 67.5t-69 92.5t-38 97.5t-10.5 86.5zM306.5 1653.5 q2.5 18.5 17.5 32.5q51 48 86.5 63.5t72.5 15.5q47 0 128.5 -45t127.5 -45q52 0 105 51q12 12 31 12t30 -12q13 -13 12 -33.5t-18 -33.5q-90 -76 -158 -76q-43 0 -128.5 45t-127.5 45q-48 0 -98 -45q-19 -19 -39 -20.5t-31 12.5q-13 15 -10.5 33.5zM326 377q0 -66 22 -117 t53.5 -78.5t74 -45t75.5 -22.5t65 -5t65 5.5t74.5 23t73 45t53 78t21.5 116.5v717q0 65 -21.5 115.5t-53 78.5t-73 45.5t-74.5 23t-65 5.5t-65 -5.5t-75.5 -23t-74 -45t-53.5 -78t-22 -116.5v-717z" />
<glyph unicode="&#xd6;" d="M223 377v721q0 39 10.5 83t39 95.5t70.5 91.5t113 67t160 27q87 0 157 -27t112.5 -67.5t70.5 -91.5t39 -96t11 -84v-721q0 -41 -11 -86t-40 -96.5t-72 -92t-114.5 -67.5t-160.5 -27q-87 0 -156.5 27t-111 67.5t-69 92.5t-38 97.5t-10.5 86.5zM326 377q0 -66 22 -117 t53.5 -78.5t74 -45t75.5 -22.5t65 -5t65 5.5t74.5 23t73 45t53 78t21.5 116.5v717q0 65 -21.5 115.5t-53 78.5t-73 45.5t-74.5 23t-65 5.5t-65 -5.5t-75.5 -23t-74 -45t-53.5 -78t-22 -116.5v-717zM334 1612v174h141v-174h-141zM764 1612v174h141v-174h-141z" />
<glyph unicode="&#xd7;" d="M272 262q0 22 17 35h-2l258 260l-258 260h2q-17 13 -17 34t15 34q12 15 33 15t34 -17v2l260 -258l260 258v-2q13 17 34.5 17t33.5 -15q15 -13 15 -34t-17 -34h2l-258 -260l258 -260h-2q17 -14 16.5 -35t-16.5 -35q-14 -13 -33.5 -13t-36.5 15l-256 258l-260 -260v2 q-13 -15 -34 -15.5t-33 13.5q-15 13 -15 35z" />
<glyph unicode="&#xd8;" />
<glyph unicode="&#xd9;" d="M221 377v1055q0 22 14 36.5t37 14.5q21 0 36.5 -15t15.5 -36v-1055q0 -66 22 -117t53.5 -78.5t74 -45t75.5 -22.5t65 -5t65 5.5t75 23t73.5 45t53.5 78t22 116.5v1055q0 22 13.5 36.5t35.5 14.5t38 -15t16 -36v-1057q0 -40 -11 -85.5t-40.5 -97t-73 -92t-115 -67.5 t-160.5 -27q-87 0 -156.5 27t-111 67.5t-69 92.5t-38 97.5t-10.5 86.5zM451 1878h122l144 -289h-94z" />
<glyph unicode="&#xda;" d="M221 377v1055q0 22 14 36.5t37 14.5q21 0 36.5 -15t15.5 -36v-1055q0 -66 22 -117t53.5 -78.5t74 -45t75.5 -22.5t65 -5t65 5.5t75 23t73.5 45t53.5 78t22 116.5v1055q0 22 13.5 36.5t35.5 14.5t38 -15t16 -36v-1057q0 -40 -11 -85.5t-40.5 -97t-73 -92t-115 -67.5 t-160.5 -27q-87 0 -156.5 27t-111 67.5t-69 92.5t-38 97.5t-10.5 86.5zM477 1587l141 291h125l-174 -291h-92z" />
<glyph unicode="&#xdb;" d="M221 377v1055q0 22 14 36.5t37 14.5q21 0 36.5 -15t15.5 -36v-1055q0 -66 22 -117t53.5 -78.5t74 -45t75.5 -22.5t65 -5t65 5.5t75 23t73.5 45t53.5 78t22 116.5v1055q0 22 13.5 36.5t35.5 14.5t38 -15t16 -36v-1057q0 -40 -11 -85.5t-40.5 -97t-73 -92t-115 -67.5 t-160.5 -27q-87 0 -156.5 27t-111 67.5t-69 92.5t-38 97.5t-10.5 86.5zM387 1622q0 20 12 33l183 196h65l182 -192q13 -15 13 -35t-13 -33q-12 -12 -33 -11.5t-36 15.5l-146 156l-147 -160q-15 -15 -35 -15.5t-33 13.5q-12 13 -12 33z" />
<glyph unicode="&#xdc;" d="M221 377v1055q0 22 14 36.5t37 14.5q21 0 36.5 -15t15.5 -36v-1055q0 -66 22 -117t53.5 -78.5t74 -45t75.5 -22.5t65 -5t65 5.5t75 23t73.5 45t53.5 78t22 116.5v1055q0 22 13.5 36.5t35.5 14.5t38 -15t16 -36v-1057q0 -40 -11 -85.5t-40.5 -97t-73 -92t-115 -67.5 t-160.5 -27q-87 0 -156.5 27t-111 67.5t-69 92.5t-38 97.5t-10.5 86.5zM322 1614v174h141v-174h-141zM752 1614v174h141v-174h-141z" />
<glyph unicode="&#xdf;" d="M219 41v1055q0 41 8.5 84t34 95t64.5 91.5t108 66.5t158 27q87 0 154.5 -25.5t106 -63.5t63 -88t32.5 -92.5t8 -84.5v-33q0 -71 -34.5 -147.5t-96.5 -110.5q58 -22 98 -62.5t57.5 -89t23.5 -86t6 -75.5v-107q0 -43 -8.5 -87.5t-33.5 -97t-63.5 -92.5t-106 -66.5 t-153.5 -26.5h-86q-23 0 -37 13.5t-14 35.5t14 37.5t37 15.5h82q32 0 63.5 5.5t69.5 23t66.5 45.5t47.5 78.5t19 115.5v101q0 65 -17.5 115t-43 78t-61 45t-65 22.5t-61.5 5.5h-41v104h39q94 -3 147.5 52t53.5 155v29q0 65 -19.5 114t-47.5 75.5t-67 42t-69 20t-63 4.5 q-32 0 -64 -5.5t-70.5 -23t-67.5 -45.5t-48.5 -78.5t-19.5 -115.5v-1049q0 -23 -15 -37t-37 -14q-23 0 -37 14t-14 37z" />
<glyph unicode="&#xe0;" d="M233 377v346q0 169 104 270t277 101q77 0 155 -31t126 -90v86q0 21 13.5 36t33.5 15t35.5 -15.5t15.5 -35.5v-1018q0 -21 -15 -35t-36 -14q-20 0 -33.5 13.5t-13.5 35.5v90q-52 -65 -127 -96t-154 -31q-177 0 -279 100t-102 273zM340 377q0 -39 6.5 -73.5t25.5 -71 t48.5 -62.5t79 -42.5t114.5 -16.5q129 0 204 70t75 196v346q0 49 -13 92.5t-42.5 84.5t-86.5 65t-137 24q-129 0 -201.5 -70t-72.5 -196v-346zM481 1503h125l142 -289h-93z" />
<glyph unicode="&#xe1;" d="M233 377v346q0 169 104 270t277 101q77 0 155 -31t126 -90v86q0 21 13.5 36t33.5 15t35.5 -15.5t15.5 -35.5v-1018q0 -21 -15 -35t-36 -14q-20 0 -33.5 13.5t-13.5 35.5v90q-52 -65 -127 -96t-154 -31q-177 0 -279 100t-102 273zM340 377q0 -39 6.5 -73.5t25.5 -71 t48.5 -62.5t79 -42.5t114.5 -16.5q129 0 204 70t75 196v346q0 49 -13 92.5t-42.5 84.5t-86.5 65t-137 24q-129 0 -201.5 -70t-72.5 -196v-346zM502 1212l143 291h123l-172 -291h-94z" />
<glyph unicode="&#xe2;" d="M233 377v346q0 169 104 270t277 101q77 0 155 -31t126 -90v86q0 21 13.5 36t33.5 15t35.5 -15.5t15.5 -35.5v-1018q0 -21 -15 -35t-36 -14q-20 0 -33.5 13.5t-13.5 35.5v90q-52 -65 -127 -96t-154 -31q-177 0 -279 100t-102 273zM340 377q0 -39 6.5 -73.5t25.5 -71 t48.5 -62.5t79 -42.5t114.5 -16.5q129 0 204 70t75 196v346q0 49 -13 92.5t-42.5 84.5t-86.5 65t-137 24q-129 0 -201.5 -70t-72.5 -196v-346zM387 1261q0 19 12 33l183 197h65l182 -193q13 -15 13 -34.5t-13 -32.5q-12 -12 -33 -11.5t-36 15.5l-146 156l-147 -160 q-15 -15 -35 -15.5t-33 13.5q-12 13 -12 32z" />
<glyph unicode="&#xe3;" d="M233 377v346q0 169 104 270t277 101q77 0 155 -31t126 -90v86q0 21 13.5 36t33.5 15t35.5 -15.5t15.5 -35.5v-1018q0 -21 -15 -35t-36 -14q-20 0 -33.5 13.5t-13.5 35.5v90q-52 -65 -127 -96t-154 -31q-177 0 -279 100t-102 273zM327 1311q2 18 17 32q51 48 87.5 64 t72.5 16q47 0 128.5 -45t127.5 -45q51 0 104 51q12 12 32 12t30 -12q13 -13 12 -33.5t-18 -33.5q-90 -76 -158 -76q-43 0 -128.5 45t-127.5 45q-48 0 -98 -45q-19 -19 -39 -20.5t-31 12.5q-13 15 -11 33zM340 377q0 -39 6.5 -73.5t25.5 -71t48.5 -62.5t79 -42.5t114.5 -16.5 q129 0 204 70t75 196v346q0 49 -13 92.5t-42.5 84.5t-86.5 65t-137 24q-129 0 -201.5 -70t-72.5 -196v-346z" />
<glyph unicode="&#xe4;" d="M233 377v346q0 169 104 270t277 101q77 0 155 -31t126 -90v86q0 21 13.5 36t33.5 15t35.5 -15.5t15.5 -35.5v-1018q0 -21 -15 -35t-36 -14q-20 0 -33.5 13.5t-13.5 35.5v90q-52 -65 -127 -96t-154 -31q-177 0 -279 100t-102 273zM340 377q0 -39 6.5 -73.5t25.5 -71 t48.5 -62.5t79 -42.5t114.5 -16.5q129 0 204 70t75 196v346q0 49 -13 92.5t-42.5 84.5t-86.5 65t-137 24q-129 0 -201.5 -70t-72.5 -196v-346zM346 1288v176h139v-176h-139zM776 1288v176h142v-176h-142z" />
<glyph unicode="&#xe5;" d="M233 377v346q0 169 104 270t277 101q77 0 155 -31t126 -90v86q0 21 13.5 36t33.5 15t35.5 -15.5t15.5 -35.5v-1018q0 -21 -15 -35t-36 -14q-20 0 -33.5 13.5t-13.5 35.5v90q-52 -65 -127 -96t-154 -31q-177 0 -279 100t-102 273zM340 377q0 -39 6.5 -73.5t25.5 -71 t48.5 -62.5t79 -42.5t114.5 -16.5q129 0 204 70t75 196v346q0 49 -13 92.5t-42.5 84.5t-86.5 65t-137 24q-129 0 -201.5 -70t-72.5 -196v-346zM430 1391q0 83 60 142.5t143 59.5q84 0 143.5 -59t59.5 -143q0 -82 -60 -142.5t-143 -60.5t-143 60.5t-60 142.5zM516 1391 q0 -48 34 -82.5t83 -34.5q47 0 81 35t34 82q0 50 -33.5 83t-81.5 33q-50 0 -83.5 -33.5t-33.5 -82.5z" />
<glyph unicode="&#xe7;" d="M236 377v346q0 169 102.5 270t275.5 101q166 0 268.5 -93t108.5 -251q0 -21 -15.5 -36.5t-39.5 -15.5q-22 0 -35.5 13.5t-13.5 36.5q-3 47 -17 86t-43.5 76t-83.5 58t-129 21q-129 0 -201.5 -70t-72.5 -196v-346q0 -39 6.5 -73.5t25.5 -71t48.5 -62.5t79 -42.5 t114.5 -16.5q123 0 195 62.5t78 176.5q0 20 15.5 36.5t35.5 16.5q21 0 36 -16.5t17 -36.5q-12 -141 -99 -234t-224 -108l-99 -252h-114l116 250q-158 10 -246.5 109t-88.5 262z" />
<glyph unicode="&#xe8;" d="M236 377v346q0 169 102.5 270t275.5 101q175 0 276 -99.5t101 -271.5v-199h-651v-147q0 -39 6.5 -73.5t25.5 -71t48.5 -62.5t79 -42.5t114.5 -16.5q123 0 195 62.5t78 176.5q0 20 15.5 36.5t35.5 16.5t36.5 -15.5t16.5 -37.5q-14 -157 -115.5 -251.5t-261.5 -94.5 q-177 0 -277.5 99.5t-100.5 273.5zM340 631h549l-2 92q0 39 -7 74t-26 71t-48.5 62t-78.5 42.5t-113 16.5q-129 0 -201.5 -70t-72.5 -196v-92zM457 1503h123l143 -289h-94z" />
<glyph unicode="&#xe9;" d="M236 377v346q0 169 102.5 270t275.5 101q175 0 276 -99.5t101 -271.5v-199h-651v-147q0 -39 6.5 -73.5t25.5 -71t48.5 -62.5t79 -42.5t114.5 -16.5q123 0 195 62.5t78 176.5q0 20 15.5 36.5t35.5 16.5t36.5 -15.5t16.5 -37.5q-14 -157 -115.5 -251.5t-261.5 -94.5 q-177 0 -277.5 99.5t-100.5 273.5zM340 631h547v92q0 39 -7 74t-26 71t-48.5 62t-78.5 42.5t-113 16.5q-129 0 -201.5 -70t-72.5 -196v-92zM477 1212l144 291h124l-174 -291h-94z" />
<glyph unicode="&#xea;" d="M236 377v346q0 169 102.5 270t275.5 101q175 0 276 -99.5t101 -271.5v-199h-651v-147q0 -39 6.5 -73.5t25.5 -71t48.5 -62.5t79 -42.5t114.5 -16.5q123 0 195 62.5t78 176.5q0 20 15.5 36.5t35.5 16.5t36.5 -15.5t16.5 -37.5q-14 -157 -115.5 -251.5t-261.5 -94.5 q-177 0 -277.5 99.5t-100.5 273.5zM340 631h549l-2 92q0 39 -7 74t-26 71t-48.5 62t-78.5 42.5t-113 16.5q-129 0 -201.5 -70t-72.5 -196v-92zM387 1261q0 19 12 33l183 197h65l182 -193q13 -15 13 -34.5t-13 -32.5q-12 -12 -33 -11.5t-36 15.5l-146 156l-147 -160 q-15 -15 -35 -15.5t-33 13.5q-12 13 -12 32z" />
<glyph unicode="&#xeb;" d="M236 377v346q0 169 102.5 270t275.5 101q175 0 276 -99.5t101 -271.5v-199h-651v-147q0 -39 6.5 -73.5t25.5 -71t48.5 -62.5t79 -42.5t114.5 -16.5q123 0 195 62.5t78 176.5q0 20 15.5 36.5t35.5 16.5t36.5 -15.5t16.5 -37.5q-14 -157 -115.5 -251.5t-261.5 -94.5 q-177 0 -277.5 99.5t-100.5 273.5zM324 1288v176h141v-176h-141zM340 631h549l-2 92q0 39 -7 74t-26 71t-48.5 62t-78.5 42.5t-113 16.5q-129 0 -201.5 -70t-72.5 -196v-92zM754 1290v174h141v-174h-141z" />
<glyph unicode="&#xec;" d="M231 74q0 22 13.5 35.5t34.5 13.5h282v860h-282q-20 0 -34 13.5t-14 33.5q0 22 13.5 35.5t34.5 13.5h387v-956h213q20 0 33.5 -13.5t13.5 -35.5q0 -21 -13 -34t-34 -13h-600q-21 0 -34.5 13t-13.5 34zM410 1503h122l144 -289h-94z" />
<glyph unicode="&#xed;" d="M231 74q0 22 13.5 35.5t34.5 13.5h282v860h-282q-20 0 -34 13.5t-14 33.5q0 22 13.5 35.5t34.5 13.5h387v-956h213q20 0 33.5 -13.5t13.5 -35.5q0 -21 -13 -34t-34 -13h-600q-21 0 -34.5 13t-13.5 34zM481 1217l142 288h125l-173 -288h-94z" />
<glyph unicode="&#xee;" d="M231 74q0 22 13.5 35.5t34.5 13.5h282v860h-282q-20 0 -34 13.5t-14 33.5q0 22 13.5 35.5t34.5 13.5h387v-956h213q20 0 33.5 -13.5t13.5 -35.5q0 -21 -13 -34t-34 -13h-600q-21 0 -34.5 13t-13.5 34zM387 1261q0 19 12 33l183 197h65l182 -193q13 -15 13 -34.5 t-13 -32.5q-12 -12 -33 -11.5t-36 15.5l-146 156l-147 -160q-15 -15 -35 -15.5t-33 13.5q-12 13 -12 32z" />
<glyph unicode="&#xef;" d="M231 74q0 22 13.5 35.5t34.5 13.5h282v860h-282q-20 0 -34 13.5t-14 33.5q0 22 13.5 35.5t34.5 13.5h387v-956h213q20 0 33.5 -13.5t13.5 -35.5q0 -21 -13 -34t-34 -13h-600q-21 0 -34.5 13t-13.5 34zM328 1280v174h139v-174h-139zM758 1280v174h139v-174h-139z" />
<glyph unicode="&#xf1;" d="M236 43v1014q0 22 14 37.5t37 15.5q20 0 35.5 -15.5t15.5 -37.5v-86q47 56 127 89.5t151 33.5q174 0 274.5 -99.5t100.5 -271.5v-680q0 -23 -15.5 -37t-37.5 -14t-35.5 14t-13.5 37v680q0 39 -7 74t-26 71t-48.5 62t-78.5 42.5t-113 16.5q-121 0 -199.5 -73t-78.5 -189 v-684q0 -23 -15 -37t-36 -14q-23 0 -37 14t-14 37zM304.5 1311q2.5 18 17.5 32q51 48 87 64t72 16q47 0 128.5 -45t127.5 -45q52 0 105 51q12 12 31 12t30 -12q13 -13 12 -33.5t-18 -33.5q-90 -76 -158 -76q-43 0 -128.5 45t-127.5 45q-48 0 -98 -45q-19 -19 -39 -20.5 t-31 12.5q-13 15 -10.5 33z" />
<glyph unicode="&#xf2;" d="M236 377v346q0 169 102.5 270t275.5 101q175 0 277 -99.5t102 -271.5v-346q0 -170 -103 -270.5t-276 -100.5q-175 0 -276.5 99t-101.5 272zM340 377q0 -50 12 -93t40.5 -84.5t85.5 -66t136 -24.5q129 0 202 71t73 197v346q0 49 -12.5 92.5t-41 84.5t-85 65t-136.5 24 q-129 0 -201.5 -70t-72.5 -196v-346zM463 1503h123l143 -289h-94z" />
<glyph unicode="&#xf3;" d="M236 377v346q0 169 102.5 270t275.5 101q175 0 276 -99.5t101 -271.5v-346q0 -170 -102 -270.5t-275 -100.5q-177 0 -277.5 99t-100.5 272zM340 377q0 -50 12 -93t40 -84.5t85 -66t137 -24.5q129 0 202 71t73 197v346q0 49 -12.5 92.5t-41 84.5t-85 65t-136.5 24 q-129 0 -201.5 -70t-72.5 -196v-346zM479 1212l144 291h125l-175 -291h-94z" />
<glyph unicode="&#xf4;" d="M236 377v346q0 169 102 270t274 101q177 0 278 -99.5t101 -271.5v-346q0 -170 -103 -270.5t-276 -100.5q-175 0 -275.5 99t-100.5 272zM338 377q0 -50 12 -93t40.5 -84.5t85.5 -66t136 -24.5q129 0 202 71t73 197v346q0 49 -12.5 92.5t-41 84.5t-85 65t-136.5 24 q-128 0 -201 -70.5t-73 -195.5v-346zM387 1261q0 19 12 33l183 197h65l182 -193q13 -15 13 -34.5t-13 -32.5q-12 -12 -33 -11.5t-36 15.5l-146 156l-147 -160q-15 -15 -35 -15.5t-33 13.5q-12 13 -12 32z" />
<glyph unicode="&#xf5;" d="M236 377v346q0 169 102 270t274 101q177 0 278 -99.5t101 -271.5v-346q0 -170 -103 -270.5t-276 -100.5q-175 0 -275.5 99t-100.5 272zM296 1309q2 18 17 32q51 48 87.5 64t72.5 16q47 0 128.5 -45t127.5 -45q52 0 105 51q12 12 31 12t30 -12q13 -13 12 -33.5t-18 -33.5 q-90 -76 -158 -76q-43 0 -128.5 45t-127.5 45q-48 0 -98 -45q-19 -19 -39 -20.5t-31 12.5q-13 15 -11 33zM338 377q0 -50 12 -93t40.5 -84.5t85.5 -66t136 -24.5q129 0 202 71t73 197v346q0 49 -12.5 92.5t-41 84.5t-85 65t-136.5 24q-128 0 -201 -70.5t-73 -195.5v-346z " />
<glyph unicode="&#xf6;" d="M236 377v346q0 169 102.5 270t275.5 101q175 0 276 -99.5t101 -271.5v-346q0 -170 -102 -270.5t-275 -100.5q-177 0 -277.5 99t-100.5 272zM326 1288v176h141v-176h-141zM340 377q0 -50 12 -93t40 -84.5t85 -66t137 -24.5q129 0 202 71t73 197v346q0 49 -12.5 92.5 t-41 84.5t-85 65t-136.5 24q-129 0 -201.5 -70t-72.5 -196v-346zM756 1290v174h141v-174h-141z" />
<glyph unicode="&#xf7;" d="M229 555q0 43 43 43h682q20 0 32.5 -11.5t12.5 -31.5t-12.5 -31.5t-32.5 -11.5h-682q-43 0 -43 43zM545 166v158h137v-158h-137zM545 788v156h137v-156h-137z" />
<glyph unicode="&#xf8;" d="M238 377v346q0 169 102.5 270t275.5 101q110 0 187 -39l94 198q9 20 29 28t37 -1q20 -9 25.5 -27.5t-3.5 -38.5l-102 -213q49 -48 79.5 -121.5t30.5 -156.5v-346q0 -170 -102.5 -270.5t-274.5 -100.5q-108 0 -178 33l-106 -232q-9 -22 -28.5 -30.5t-39.5 0.5 q-42 20 -20 69l114 242q-57 46 -88.5 121t-31.5 168zM342 377q0 -130 59 -191l359 775q-61 28 -144 28q-129 0 -201.5 -70t-72.5 -196v-346zM479 131q68 -22 137 -22q128 0 200.5 71t72.5 197v346q0 111 -51 178z" />
<glyph unicode="&#xf9;" d="M236 377v680q0 22 14 37.5t37 15.5q20 0 35.5 -15.5t15.5 -37.5v-680q0 -39 7 -74t25.5 -71t48.5 -62t79.5 -42.5t113.5 -16.5q121 0 199 66t78 177v703q0 22 14 37.5t35 15.5q22 0 37.5 -15.5t15.5 -37.5v-1014q0 -23 -15.5 -37t-37.5 -14t-35.5 14t-13.5 37v78 q-54 -57 -128 -86t-149 -29q-177 0 -276.5 98.5t-99.5 272.5zM457 1503h125l139 -289h-92z" />
<glyph unicode="&#xfa;" d="M236 377v680q0 22 14 37.5t37 15.5q20 0 35.5 -15.5t15.5 -37.5v-680q0 -39 7 -74t25.5 -71t48.5 -62t79.5 -42.5t113.5 -16.5q121 0 199 66t78 177v703q0 22 14 37.5t35 15.5q22 0 37.5 -15.5t15.5 -37.5v-1014q0 -23 -15.5 -37t-37.5 -14t-35.5 14t-13.5 37v78 q-54 -57 -128 -86t-149 -29q-177 0 -276.5 98.5t-99.5 272.5zM446 1212l142 291h125l-172 -291h-95z" />
<glyph unicode="&#xfb;" d="M236 377v680q0 22 14 37.5t37 15.5q20 0 35.5 -15.5t15.5 -37.5v-680q0 -39 7 -74t25.5 -71t48.5 -62t79.5 -42.5t113.5 -16.5q121 0 199 66t78 177v703q0 22 14 37.5t35 15.5q22 0 37.5 -15.5t15.5 -37.5v-1014q0 -23 -15.5 -37t-37.5 -14t-35.5 14t-13.5 37v78 q-54 -57 -128 -86t-149 -29q-177 0 -276.5 98.5t-99.5 272.5zM387 1261q0 19 12 33l183 197h65l182 -193q13 -15 13 -34.5t-13 -32.5q-12 -12 -33 -11.5t-36 15.5l-146 156l-147 -160q-15 -15 -35 -15.5t-33 13.5q-12 13 -12 32z" />
<glyph unicode="&#xfc;" d="M236 377v680q0 22 14 37.5t37 15.5q20 0 35.5 -15.5t15.5 -37.5v-680q0 -39 7 -74t25.5 -71t48.5 -62t79.5 -42.5t113.5 -16.5q121 0 199 66t78 177v703q0 22 14 37.5t35 15.5q22 0 37.5 -15.5t15.5 -37.5v-1014q0 -23 -15.5 -37t-37.5 -14t-35.5 14t-13.5 37v78 q-54 -57 -128 -86t-149 -29q-177 0 -276.5 98.5t-99.5 272.5zM313 1280v174h142v-174h-142zM745 1280v174h140v-174h-140z" />
<glyph unicode="&#xff;" d="M264 1040q-5 22 7 42t32 24q22 5 42 -7t24 -34l209 -934h63l217 934q4 21 24.5 33.5t41.5 7.5q20 -4 32 -24t7 -42l-304 -1251q-31 -129 -99.5 -176t-194.5 -47h-17q-21 0 -36 15t-15 36q0 22 14.5 37.5t36.5 15.5h25q154 0 192 133l51 220h-110zM330 1274v174h141v-174 h-141zM760 1274v174h141v-174h-141z" />
<glyph unicode="&#x178;" d="M209 1397q-8 19 0.5 41.5t28.5 29.5q23 9 43 0t28 -30l305 -766l304 766q8 21 28 30t43 0q20 -7 27.5 -29t-0.5 -42l-352 -858v-498q0 -23 -15 -37t-37 -14q-23 0 -36 14t-13 37v498zM315 1614v174h142v-174h-142zM748 1614v174h139v-174h-139z" />
<glyph unicode="&#x2c6;" d="M387 1261q0 19 12 33l183 197h65l182 -193q13 -15 13 -34.5t-13 -32.5q-12 -12 -33 -11.5t-36 15.5l-146 156l-147 -160q-15 -15 -35 -15.5t-33 13.5q-12 13 -12 32z" />
<glyph unicode="&#x2dc;" d="M306.5 1311q2.5 18 17.5 32q51 48 87 64t72 16q41 0 69 -10.5t71 -36.5q67 -43 116 -43q52 0 105 51q12 12 31 12t30 -12q13 -13 12 -33.5t-18 -33.5q-90 -76 -158 -76q-43 0 -128.5 45t-127.5 45q-48 0 -98 -45q-19 -19 -39 -20.5t-31 12.5q-13 15 -10.5 33z" />
<glyph unicode="&#x2000;" horiz-adv-x="977" />
<glyph unicode="&#x2001;" horiz-adv-x="1954" />
<glyph unicode="&#x2002;" horiz-adv-x="977" />
<glyph unicode="&#x2003;" horiz-adv-x="1954" />
<glyph unicode="&#x2004;" horiz-adv-x="651" />
<glyph unicode="&#x2005;" horiz-adv-x="488" />
<glyph unicode="&#x2006;" horiz-adv-x="325" />
<glyph unicode="&#x2007;" horiz-adv-x="325" />
<glyph unicode="&#x2008;" horiz-adv-x="244" />
<glyph unicode="&#x2009;" horiz-adv-x="390" />
<glyph unicode="&#x200a;" horiz-adv-x="108" />
<glyph unicode="&#x2010;" d="M315 557q0 20 14 33.5t36 13.5h497q22 0 35.5 -13.5t13.5 -33.5q0 -22 -13.5 -35.5t-35.5 -13.5h-497q-22 0 -36 13.5t-14 35.5z" />
<glyph unicode="&#x2011;" d="M315 557q0 20 14 33.5t36 13.5h497q22 0 35.5 -13.5t13.5 -33.5q0 -22 -13.5 -35.5t-35.5 -13.5h-497q-22 0 -36 13.5t-14 35.5z" />
<glyph unicode="&#x2012;" d="M315 557q0 20 14 33.5t36 13.5h497q22 0 35.5 -13.5t13.5 -33.5q0 -22 -13.5 -35.5t-35.5 -13.5h-497q-22 0 -36 13.5t-14 35.5z" />
<glyph unicode="&#x2013;" d="M229 547q0 43 43 43h682q20 0 32.5 -11.5t12.5 -31.5t-12.5 -31.5t-32.5 -11.5h-682q-43 0 -43 43z" />
<glyph unicode="&#x2014;" d="M27 547q0 43 41 43h1091q43 0 43 -43t-43 -43h-1091q-41 0 -41 43z" />
<glyph unicode="&#x2018;" d="M444 1161l267 420h65l-158 -420h-174z" />
<glyph unicode="&#x2019;" d="M453 1161l155 420h174l-266 -420h-63z" />
<glyph unicode="&#x201a;" d="M547 -121v297h135v-158z" />
<glyph unicode="&#x201c;" d="M303 1227l268 430h80l-164 -430h-184zM571 1227l269 430h80l-164 -430h-185z" />
<glyph unicode="&#x201d;" d="M309 1227l164 430h186l-270 -430h-80zM578 1227l163 430h187l-271 -430h-79z" />
<glyph unicode="&#x201e;" d="M309 -231l164 430h186l-270 -430h-80zM578 -231l163 430h187l-271 -430h-79z" />
<glyph unicode="&#x2022;" d="M408 725q0 85 60 146t144 61q85 0 146 -61t61 -146t-61 -146t-146 -61q-84 0 -144 61t-60 146z" />
<glyph unicode="&#x2026;" d="M100 25v170h148v-170h-148zM541 25v170h145v-170h-145zM981 25v170h147v-168z" />
<glyph unicode="&#x202f;" horiz-adv-x="390" />
<glyph unicode="&#x2039;" d="M426 553l285 285q14 12 34.5 12.5t34.5 -12.5q15 -15 14.5 -36.5t-14.5 -35.5l-215 -213l215 -217q14 -14 14 -35t-14 -35t-35 -14t-34 14z" />
<glyph unicode="&#x203a;" d="M434.5 801.5q-0.5 21.5 14.5 36.5q14 13 34.5 12.5t34.5 -12.5l285 -285l-285 -287q-14 -14 -35 -14t-34 14t-13 35t13 35l215 217l-215 213q-14 14 -14.5 35.5z" />
<glyph unicode="&#x205f;" horiz-adv-x="488" />
<glyph unicode="&#x20ac;" d="M131 539l33 94h149v186h-182l33 99h149v180q0 41 8.5 84t33.5 95t64.5 91.5t108 66.5t156.5 27t156 -27t106.5 -66.5t63.5 -92.5t33 -97.5t8 -88.5q0 -21 -15.5 -35.5t-34.5 -14.5q-22 0 -35.5 14t-13.5 36q0 66 -19.5 117t-48 79t-67 45.5t-70 23t-63.5 5.5 q-29 0 -60.5 -5.5t-70 -23t-68 -45.5t-49.5 -78.5t-20 -115.5v-172h442l-35 -99h-407v-186h381l-33 -94h-348v-162q0 -66 19.5 -116.5t48.5 -78t67.5 -45t70 -23t62.5 -5.5q32 0 63.5 5.5t70 23t67 45.5t48 79t19.5 117q0 19 14 34t35 15q19 0 34.5 -15t15.5 -34 q0 -45 -8.5 -90t-34 -98t-65 -93t-109 -67t-158.5 -27q-86 0 -153.5 27t-105.5 66.5t-63 92.5t-33 97.5t-8 87.5v162h-182z" />
<glyph unicode="&#x2122;" d="M68 1360v86h475v-84h-195v-676h-86v674h-194zM639 678v768h133l127 -361l125 361h135v-768h-86v645l-137 -387h-76l-135 387v-645h-86z" />
<glyph unicode="&#xe000;" horiz-adv-x="1095" d="M0 0v1096h1096v-1096h-1096z" />
</font>
</defs>
</svg>
